<svg width="24" height="24" viewBox="0 0 24 24" fill="none" xmlns="http://www.w3.org/2000/svg">
<g clip-path="url(#clip0_470_30970)">
<mask id="mask0_470_30970" style="mask-type:luminance" maskUnits="userSpaceOnUse" x="0" y="0" width="25" height="24">
<path d="M24.0047 0H0V24H24.0047V0Z" fill="white"/>
</mask>
<g mask="url(#mask0_470_30970)">
<path d="M21.8947 9.18743C21.3102 9.18743 20.2552 9.40223 19.199 10.631C17.9207 9.31223 16.0904 8.48423 14.1124 8.48423H8.43888C8.17482 8.48423 7.90837 8.50223 7.62271 8.53943C6.45248 6.68783 4.32565 6.77423 3.29705 7.11263C3.0642 7.18943 2.88898 7.38023 2.83257 7.61783C2.77496 7.85543 2.84575 8.10503 3.01859 8.27783C3.42427 8.68343 3.74474 9.31343 3.95598 10.1174C3.11701 10.8194 2.4569 11.7014 2.02001 12.7022H0.703352C0.314475 12.7022 0 13.0166 0 13.4054V17.6246C0 18.0134 0.314475 18.3278 0.703352 18.3278H2.02001C2.75575 19.9982 4.12882 21.3734 5.82355 22.0574L5.63631 23.1818C5.6015 23.3858 5.65912 23.5934 5.79355 23.7518C5.92677 23.9102 6.12241 24.0002 6.32885 24.0002H9.1422C9.48667 24.0002 9.77953 23.7518 9.83594 23.4122L9.97278 22.5938H12.5785L12.7153 23.4122C12.7717 23.7518 13.0646 24.0002 13.409 24.0002H16.2224C16.4288 24.0002 16.6257 23.909 16.7577 23.7518C16.8922 23.5934 16.9497 23.3858 16.9161 23.1818L16.7289 22.0586C19.3946 20.9954 21.1914 18.4106 21.1914 15.515C21.1914 14.1386 20.7797 12.863 20.0932 11.7782C20.6669 11.0246 21.2946 10.5938 21.8947 10.5938C22.2968 10.5938 22.5981 10.7786 22.5981 10.9454C22.5981 11.2166 22.3268 11.3858 22.3244 11.3858C21.9859 11.5754 21.8647 12.0038 22.0544 12.3434C22.244 12.6818 22.6713 12.803 23.0121 12.6146C23.3806 12.4082 24.0047 11.8238 24.0047 10.9466C24.0047 9.96023 23.0782 9.18863 21.8947 9.18863V9.18743ZM6.32885 14.1098C5.94117 14.1098 5.6267 13.7954 5.6267 13.4066C5.6267 13.0178 5.94117 12.7034 6.32885 12.7034C6.71653 12.7034 7.0322 13.0178 7.0322 13.4066C7.0322 13.7954 6.71773 14.1098 6.32885 14.1098ZM14.8157 12.7034H9.1422C8.75332 12.7034 8.43888 12.389 8.43888 12.0002C8.43888 11.6114 8.75332 11.297 9.1422 11.297H14.8157C15.2046 11.297 15.5191 11.6114 15.5191 12.0002C15.5191 12.389 15.2046 12.7034 14.8157 12.7034Z" fill="#5485D3"/>
<path d="M8.43945 3.5628C8.43945 5.5008 10.0646 7.0788 12.003 7.0788C13.9413 7.0788 15.5197 5.502 15.5197 3.5628C15.5197 1.6236 13.9413 0 12.003 0C10.0646 0 8.43945 1.6236 8.43945 3.5628Z" fill="#96DCFB"/>
</g>
</g>
<defs>
<clipPath id="clip0_470_30970">
<rect width="24" height="24" fill="white"/>
</clipPath>
</defs>
</svg>
