<svg width="24" height="24" viewBox="0 0 24 24" fill="none" xmlns="http://www.w3.org/2000/svg">
<g clip-path="url(#clip0_1005_66562)">
<mask id="mask0_1005_66562" style="mask-type:luminance" maskUnits="userSpaceOnUse" x="0" y="0" width="24" height="24">
<path d="M24 0H0V23.9953H24V0Z" fill="white"/>
</mask>
<g mask="url(#mask0_1005_66562)">
<path d="M13.9087 14.7211C17.9359 14.7211 21.2119 11.4193 21.2119 7.36055C21.2119 3.30175 17.9359 0 13.9087 0C9.88147 0 6.60547 3.30175 6.60547 7.36055C6.60547 11.4193 9.88147 14.7211 13.9087 14.7211ZM11.5615 9.65689C11.7739 9.33175 12.2095 9.24057 12.5347 9.45293C13.0075 9.76247 13.1863 9.79126 13.8103 9.78647C14.4199 9.78287 14.7739 9.32816 14.8447 8.90824C14.8783 8.70428 14.8915 8.20518 14.2735 7.98562C13.5475 7.72887 12.8047 7.43613 12.2875 7.03061C11.7703 6.62509 11.5339 5.92563 11.6695 5.20457C11.8171 4.42353 12.3619 3.80085 13.0927 3.58129C13.0999 3.57889 13.1059 3.57769 13.1131 3.57529V3.30894C13.1131 2.92142 13.4275 2.60588 13.8151 2.60588C14.2027 2.60588 14.5183 2.92022 14.5183 3.30894V3.5309C14.9947 3.64488 15.3283 3.86324 15.4639 3.96402C15.7747 4.19677 15.8383 4.63708 15.6055 4.94782C15.3739 5.25856 14.9335 5.32215 14.6227 5.0894C14.4787 4.98142 14.0803 4.74986 13.4983 4.92623C13.1575 5.02821 13.0699 5.36414 13.0507 5.46492C13.0135 5.66168 13.0555 5.84644 13.1551 5.92443C13.5127 6.20517 14.1583 6.45472 14.7415 6.65988C15.8179 7.04021 16.4155 8.03721 16.2307 9.13979C16.1395 9.68088 15.8671 10.1836 15.4639 10.5543C15.1879 10.8075 14.8687 10.9874 14.5183 11.0894V11.4085C14.5183 11.7961 14.2039 12.1116 13.8151 12.1116C13.4263 12.1116 13.1131 11.7973 13.1131 11.4085V11.159C12.6583 11.1038 12.2767 10.9622 11.7655 10.6275C11.4403 10.4151 11.3491 9.97963 11.5615 9.65449V9.65689Z" fill="#96DCFB"/>
<path d="M2.66066 17.0813H1.05747C0.669866 17.0813 0.355469 17.3956 0.355469 17.7844V23.2925C0.355469 23.68 0.669866 23.9955 1.05747 23.9955H2.66066V17.0825V17.0813Z" fill="#5485D3"/>
<path d="M23.432 17.0317C22.1156 15.7144 19.9724 15.7144 18.6548 17.0317L16.55 19.1361L15.6872 19.9987C15.3392 20.3479 14.8664 20.5434 14.3732 20.5434H10.178C9.7988 20.5434 9.47241 20.2519 9.45441 19.874C9.43521 19.4696 9.75801 19.1361 10.1576 19.1361H14.4224C15.2792 19.1361 16.0232 18.5254 16.1708 17.682C16.2044 17.4876 16.2212 17.2885 16.2212 17.0857C16.2224 16.697 15.9068 16.3814 15.518 16.3814H13.1816C12.4184 16.3814 11.6852 16.0347 10.9088 15.6688C10.094 15.2837 9.25161 14.8865 8.26761 14.8206C7.40601 14.763 6.54321 14.8577 5.70201 15.1001C4.80081 15.3604 4.154 16.1607 4.0748 17.0845C4.0724 17.0845 4.06881 17.0845 4.06641 17.0845V23.9927L16.172 23.9963C17.0048 23.9963 17.7872 23.6724 18.3764 23.0833L23.432 18.0275C23.7068 17.7528 23.7068 17.3077 23.432 17.0329V17.0317Z" fill="#5485D3"/>
</g>
</g>
<defs>
<clipPath id="clip0_1005_66562">
<rect width="24" height="24" fill="white"/>
</clipPath>
</defs>
</svg>
