<svg width="24" height="24" viewBox="0 0 24 24" fill="none" xmlns="http://www.w3.org/2000/svg">
<g clip-path="url(#clip0_470_31031)">
<path d="M1.66797 7.26855H6.06135V8.67473H1.66797V7.26855Z" fill="#96DCFB"/>
<path d="M1.66797 15.2925H6.06135V16.6987H1.66797V15.2925Z" fill="#96DCFB"/>
<path d="M0 11.2808H6.06143V12.6869H0V11.2808Z" fill="#96DCFB"/>
<path d="M16.0164 4C11.6134 4 8.03125 7.58143 8.03125 11.9835C8.03125 16.3856 11.6134 19.9671 16.0164 19.9671C20.4193 19.9671 24.0015 16.3856 24.0015 11.9835C24.0015 7.58143 20.4193 4 16.0164 4ZM16.0164 11.2804C17.2284 11.2804 18.2137 12.2655 18.2137 13.4773C18.2137 14.4431 17.5872 15.2638 16.7196 15.5578V16.7H15.3132V15.5578C14.4455 15.2638 13.8191 14.4431 13.8191 13.4773H15.2255C15.2255 13.9128 15.5807 14.268 16.0164 14.268C16.452 14.268 16.8072 13.9128 16.8072 13.4773C16.8072 13.0418 16.4532 12.6866 16.0164 12.6866C14.8055 12.6866 13.8191 11.7016 13.8191 10.4898C13.8191 9.52392 14.4455 8.70325 15.3132 8.4093V7.26708H16.7196V8.4093C17.5872 8.70325 18.2137 9.52512 18.2137 10.4898H16.8072C16.8072 10.0542 16.4532 9.69909 16.0164 9.69909C15.5795 9.69909 15.2255 10.0542 15.2255 10.4898C15.2255 10.9253 15.5807 11.2804 16.0164 11.2804Z" fill="#5485D3"/>
</g>
<defs>
<clipPath id="clip0_470_31031">
<rect width="24" height="24" fill="white"/>
</clipPath>
</defs>
</svg>
