<svg width="24" height="24" viewBox="0 0 24 24" fill="none" xmlns="http://www.w3.org/2000/svg">
<g clip-path="url(#clip0_981_51703)">
<mask id="mask0_981_51703" style="mask-type:luminance" maskUnits="userSpaceOnUse" x="0" y="0" width="24" height="24">
<path d="M24 0H0V23.9953H24V0Z" fill="white"/>
</mask>
<g mask="url(#mask0_981_51703)">
<path d="M16.2721 8.5293C12.0073 8.5293 8.53809 11.9978 8.53809 16.2618C8.53809 20.5257 12.0073 23.9942 16.2721 23.9942C20.5369 23.9942 24.0061 20.5257 24.0061 16.2618C24.0061 11.9978 20.5369 8.5293 16.2721 8.5293ZM16.2721 15.5587C17.4349 15.5587 18.3817 16.5053 18.3817 17.6679C18.3817 18.5833 17.7925 19.356 16.9753 19.6475V21.1832H15.5689V19.6475C14.7517 19.356 14.1625 18.5833 14.1625 17.6679H15.5689C15.5689 18.0554 15.8845 18.3709 16.2721 18.3709C16.6597 18.3709 16.9753 18.0554 16.9753 17.6679C16.9753 17.2804 16.6597 16.9648 16.2721 16.9648C15.1093 16.9648 14.1625 16.0182 14.1625 14.8556C14.1625 13.9402 14.7517 13.1676 15.5689 12.876V11.3403H16.9753V12.876C17.7925 13.1676 18.3817 13.9402 18.3817 14.8556H16.9753C16.9753 14.4681 16.6597 14.1526 16.2721 14.1526C15.8845 14.1526 15.5689 14.4681 15.5689 14.8556C15.5689 15.2432 15.8845 15.5587 16.2721 15.5587Z" fill="#96DCFB"/>
<path d="M7.83346 8.52911C12.1703 8.52911 15.5675 6.67668 15.5675 4.31075C15.5675 1.94482 12.1715 0 7.83346 0C3.49546 0 0.00585938 1.94721 0.00585938 4.31195C0.00585938 6.67668 3.49666 8.53031 7.83346 8.53031V8.52911Z" fill="#5485D3"/>
<path d="M0.00510625 15.8201V16.9658C0.00510625 19.3306 3.49591 21.1842 7.83271 21.1842C8.07871 21.1842 8.31751 21.1614 8.55871 21.1494C8.01991 20.3012 7.61671 19.3606 7.38031 18.3552C4.24471 18.2688 1.52071 17.3054 0.00390625 15.8213L0.00510625 15.8201Z" fill="#5485D3"/>
<path d="M7.16386 16.93C7.14706 16.7092 7.13026 16.4884 7.13026 16.2629C7.13026 15.5298 7.22626 14.8208 7.39066 14.1369C4.25026 14.0517 1.52386 13.0883 0.00585938 11.6018V12.7476C0.00585938 14.9875 3.15826 16.7476 7.16506 16.93H7.16386Z" fill="#5485D3"/>
<path d="M7.83346 12.7474H7.83586C8.29906 11.6389 8.97346 10.6407 9.81106 9.80322C9.17626 9.88361 8.51986 9.9352 7.83346 9.9352C4.49506 9.9352 1.59586 8.93939 0.00585938 7.3833V8.52907C0.00585938 10.8938 3.49666 12.7474 7.83346 12.7474Z" fill="#5485D3"/>
</g>
</g>
<defs>
<clipPath id="clip0_981_51703">
<rect width="24" height="24" fill="white"/>
</clipPath>
</defs>
</svg>
