<svg width="24" height="24" viewBox="0 0 24 24" fill="none" xmlns="http://www.w3.org/2000/svg">
<g clip-path="url(#clip0_981_51672)">
<path d="M12.0005 7.00562C9.24498 7.00562 7.00098 9.25276 7.00098 12.0088C7.00098 14.7648 9.24498 17.0119 12.0005 17.0119C14.756 17.0119 17 14.7648 17 12.0088C17 9.25276 14.756 7.00562 12.0005 7.00562ZM12.5 14.421V14.7213C12.5 14.996 12.275 15.2211 12.0005 15.2211C11.726 15.2211 11.501 14.996 11.501 14.7213V14.4105C11.171 14.2949 10.88 14.0698 10.7 13.7606C10.565 13.5249 10.646 13.2157 10.886 13.0806C11.12 12.941 11.4305 13.0205 11.5655 13.2607C11.6555 13.4153 11.8205 13.5114 12.0005 13.5114C12.275 13.5114 12.5 13.2862 12.5 13.0115C12.5 12.7368 12.275 12.5116 12.0005 12.5116C11.1755 12.5116 10.5005 11.8361 10.5005 11.0105C10.5005 10.3606 10.9205 9.80966 11.501 9.59951V9.29929C11.501 9.02459 11.726 8.79943 12.0005 8.79943C12.275 8.79943 12.5 9.02459 12.5 9.29929V9.61002C12.83 9.7256 13.121 9.95077 13.301 10.26C13.436 10.5002 13.355 10.8049 13.115 10.94C12.875 11.0796 12.5705 11 12.4355 10.7599C12.3455 10.6052 12.1805 10.5092 12.0005 10.5092C11.726 10.5092 11.501 10.7343 11.501 11.009C11.501 11.2837 11.726 11.5089 12.0005 11.5089C12.8255 11.5089 13.5005 12.1844 13.5005 13.01C13.5005 13.66 13.0805 14.2109 12.5 14.421Z" fill="#96DCFB"/>
<path d="M23.6655 10.0273L21.315 9.19122L20.5755 7.40942L21.6495 5.15327C21.7395 4.96263 21.7005 4.73296 21.5505 4.58285L19.4205 2.45129C19.2705 2.30118 19.0455 2.26065 18.8505 2.35072L16.5945 3.42701L14.8155 2.68696L13.98 0.334745C13.905 0.135099 13.7205 0 13.5045 0H10.4955C10.2795 0 10.095 0.135099 10.02 0.334745L9.1845 2.68696L7.4055 3.42701L5.1495 2.35072C4.9545 2.26065 4.7295 2.30118 4.5795 2.45129L2.4495 4.58285C2.2995 4.73296 2.2605 4.96263 2.3505 5.15327L3.4245 7.40942L2.685 9.19122L0.334497 10.0273C0.134997 10.1024 0 10.287 0 10.5032V13.5159C0 13.7305 0.134997 13.9167 0.334497 13.9917L2.685 14.8278L3.4245 16.6096L2.3505 18.8658C2.2605 19.0564 2.2995 19.2861 2.4495 19.4362L4.5795 21.5678C4.7295 21.7179 4.9545 21.7584 5.1495 21.6683L7.4055 20.5921L9.1845 21.3321L10.02 23.6843C10.095 23.884 10.2795 24.0191 10.4955 24.0191H13.5045C13.7205 24.0191 13.905 23.884 13.98 23.6843L14.8155 21.3321L16.5945 20.5921L18.8505 21.6683C19.0455 21.7584 19.2705 21.7179 19.4205 21.5678L21.5505 19.4362C21.7005 19.2861 21.7395 19.0564 21.6495 18.8658L20.5755 16.6096L21.315 14.8278L23.6655 13.9917C23.865 13.9167 24 13.732 24 13.5159V10.5032C24 10.2885 23.865 10.1024 23.6655 10.0273ZM12 19.5143C7.8645 19.5143 4.5 16.1473 4.5 12.0088C4.5 7.87025 7.8645 4.50329 12 4.50329C16.1355 4.50329 19.5 7.87025 19.5 12.0088C19.5 16.1473 16.1355 19.5143 12 19.5143Z" fill="#5485D3"/>
</g>
<defs>
<clipPath id="clip0_981_51672">
<rect width="24" height="24" fill="white"/>
</clipPath>
</defs>
</svg>
