<svg width="16" height="17" viewBox="0 0 16 17" fill="none" xmlns="http://www.w3.org/2000/svg">
<g clip-path="url(#clip0_552_15839)">
<path fill-rule="evenodd" clip-rule="evenodd" d="M1.5 8.5C1.5 4.91015 4.41015 2 8 2C11.5899 2 14.5 4.91015 14.5 8.5C14.5 12.0899 11.5899 15 8 15C4.41015 15 1.5 12.0899 1.5 8.5ZM8 0.5C3.58172 0.5 0 4.08172 0 8.5C0 12.9183 3.58172 16.5 8 16.5C12.4183 16.5 16 12.9183 16 8.5C16 4.08172 12.4183 0.5 8 0.5ZM8.75 5.25C8.75 4.83579 8.41421 4.5 8 4.5C7.58579 4.5 7.25 4.83579 7.25 5.25V7.75H4.75C4.33579 7.75 4 8.08579 4 8.5C4 8.91421 4.33579 9.25 4.75 9.25H7.25V11.75C7.25 12.1642 7.58579 12.5 8 12.5C8.41421 12.5 8.75 12.1642 8.75 11.75V9.25H11.25C11.6642 9.25 12 8.91421 12 8.5C12 8.08579 11.6642 7.75 11.25 7.75H8.75V5.25Z" fill="#3465D9"/>
</g>
<defs>
<clipPath id="clip0_552_15839">
<rect width="16" height="16" fill="white" transform="translate(0 0.5)"/>
</clipPath>
</defs>
</svg>
