<svg width="24" height="24" viewBox="0 0 24 24" fill="none" xmlns="http://www.w3.org/2000/svg">
<mask id="mask0_470_31008" style="mask-type:luminance" maskUnits="userSpaceOnUse" x="0" y="0" width="25" height="24">
<path d="M24.0047 0H0V24H24.0047V0Z" fill="white"/>
</mask>
<g mask="url(#mask0_470_31008)">
<path d="M17.6257 8.48438C14.1354 8.48438 11.2969 11.3224 11.2969 14.812C11.2969 18.3016 14.1354 21.1396 17.6257 21.1396C21.116 21.1396 24.0014 18.3016 24.0014 14.812C24.0014 11.3224 21.116 8.48438 17.6257 8.48438ZM18.3471 18.2008C18.3411 18.2032 18.3351 18.202 18.3279 18.2044V19.0312C18.3279 19.42 18.0134 19.7344 17.6245 19.7344C17.2356 19.7344 16.9212 19.42 16.9212 19.0312V18.1996C16.4579 18.0436 16.0138 17.746 15.6345 17.2936C15.3849 16.996 15.4233 16.5532 15.721 16.3036C16.0186 16.054 16.4639 16.0924 16.7111 16.39C17.0832 16.8328 17.5045 17.008 17.8646 16.8796C18.1406 16.7788 18.3279 16.5124 18.3279 16.2184C18.3279 15.8308 18.0122 15.5152 17.6245 15.5152C16.4615 15.5152 15.5145 14.5684 15.5145 13.4056C15.5145 12.556 16.0198 11.794 16.8024 11.4628C16.8408 11.446 16.8816 11.4472 16.9212 11.434V10.594C16.9212 10.2052 17.2356 9.89078 17.6245 9.89078C18.0134 9.89078 18.3279 10.2052 18.3279 10.594V11.4352C18.6915 11.5576 19.0468 11.7532 19.3637 12.0604C19.6421 12.3304 19.6493 12.7756 19.3793 13.0552C19.1092 13.3336 18.6639 13.3408 18.3843 13.0708C18.0422 12.7396 17.6641 12.6256 17.3509 12.7588C17.0904 12.8692 16.9212 13.1236 16.9212 13.4068C16.9212 13.7944 17.2368 14.11 17.6245 14.11C18.7876 14.11 19.7345 15.0568 19.7345 16.2196C19.7345 17.1028 19.1764 17.8996 18.3471 18.202V18.2008Z" fill="#5485D3"/>
<path d="M0.703337 15.5156C0.31446 15.5156 0 15.83 0 16.2188V23.2964C0 23.6852 0.31446 23.9996 0.703337 23.9996H2.81336V15.5156H0.703337Z" fill="#96DCFB"/>
<path d="M16.6815 4.38761L11.7581 0.169612C11.4952 -0.0571883 11.1052 -0.0571883 10.8435 0.169612L5.92133 4.38881C5.69689 4.57961 5.61767 4.89041 5.71969 5.16641C5.82171 5.44241 6.08456 5.62601 6.37862 5.62601H8.48864V23.9992H13.412C13.8009 23.9992 14.1154 23.6848 14.1154 23.296V21.6928C11.6141 20.41 9.89531 17.8108 9.89531 14.812C9.89531 11.8132 11.6141 9.21401 14.1154 7.93121V5.62481H16.2254C16.5194 5.62481 16.7835 5.44121 16.8843 5.16521C16.9863 4.88921 16.9059 4.57841 16.6827 4.38761H16.6815Z" fill="#96DCFB"/>
<path d="M4.96897 9.89062C4.58009 9.89062 4.26562 10.205 4.26562 10.5938V24.0002H7.07898V9.89062H4.96897Z" fill="#96DCFB"/>
</g>
</svg>
