<svg width="24" height="24" viewBox="0 0 24 24" fill="none" xmlns="http://www.w3.org/2000/svg">
<g clip-path="url(#clip0_1005_66548)">
<mask id="mask0_1005_66548" style="mask-type:luminance" maskUnits="userSpaceOnUse" x="0" y="0" width="24" height="24">
<path d="M24 0H0V24H24V0Z" fill="white"/>
</mask>
<g mask="url(#mask0_1005_66548)">
<path d="M12.7031 9.3361L13.3199 9.18131C15.1547 8.72531 16.9223 10.1113 16.9223 11.9941C16.9223 13.8769 15.1559 15.2617 13.3199 14.8069L12.7031 14.6521V18.3217H14.9663L14.8115 18.9385C14.3555 20.7685 15.7379 22.5409 17.6243 22.5409C19.5107 22.5409 20.9411 20.7685 20.4839 18.9385L20.2835 18.3229H23.9999V5.6665H12.7031V9.3361Z" fill="#96DCFB"/>
<path d="M11.2968 12.851L13.6608 13.4426C14.5968 13.6742 15.516 12.971 15.516 11.9942C15.516 11.0174 14.5992 10.3082 13.6608 10.5458L11.2968 11.1374V5.66664H9.0336L9.1884 5.04984C9.6264 3.29304 8.3892 1.50024 6.3756 1.50024C4.362 1.50024 3.12 3.28104 3.5628 5.05104L3.7164 5.66664H0V18.323H11.2968V12.8522V12.851Z" fill="#5485D3"/>
</g>
</g>
<defs>
<clipPath id="clip0_1005_66548">
<rect width="24" height="24" fill="white"/>
</clipPath>
</defs>
</svg>
