<svg width="24" height="24" viewBox="0 0 24 24" fill="none" xmlns="http://www.w3.org/2000/svg">
<g clip-path="url(#clip0_470_30946)">
<mask id="mask0_470_30946" style="mask-type:luminance" maskUnits="userSpaceOnUse" x="0" y="0" width="25" height="24">
<path d="M24.0047 0H0V24H24.0047V0Z" fill="white"/>
</mask>
<g mask="url(#mask0_470_30946)">
<path d="M11.9989 7.12305C6.84866 7.12305 2.85547 12.793 2.85547 17.671C2.85547 23.3434 8.0741 23.9998 11.9989 23.9998C15.9237 23.9998 21.1423 23.3446 21.1423 17.671C21.1423 12.793 17.1491 7.12305 11.9989 7.12305ZM12.7214 18.9502C12.7154 18.9526 12.7082 18.9514 12.7022 18.9538V19.7807C12.7022 20.1695 12.3878 20.4838 11.9989 20.4838C11.61 20.4838 11.2955 20.1695 11.2955 19.7807V18.949C10.8322 18.793 10.3882 18.4954 10.0089 18.0442C9.75924 17.7466 9.79764 17.3038 10.0953 17.053C10.3918 16.8034 10.8358 16.8406 11.0855 17.1382C12.4718 18.7942 13.408 16.2646 11.9989 16.2646C10.8358 16.2646 9.88886 15.3179 9.88886 14.1551C9.88886 13.3139 10.3702 12.511 11.2955 12.1822V11.3422C11.2955 10.9534 11.61 10.639 11.9989 10.639C12.3878 10.639 12.7022 10.9534 12.7022 11.3422V12.1846C13.0659 12.307 13.4212 12.5026 13.738 12.8086C14.0165 13.0786 14.0249 13.5239 13.7548 13.8035C13.4848 14.0831 13.0395 14.0902 12.7598 13.8202C11.466 12.571 10.5922 14.8594 11.9989 14.8594C13.1619 14.8594 14.1089 15.8062 14.1089 16.969C14.1089 17.8522 13.5508 18.649 12.7214 18.9514V18.9502Z" fill="#5485D3"/>
<path d="M16.0135 0.565612C13.4174 -0.189188 10.5872 -0.189188 7.99108 0.565612C7.55539 0.691612 7.34776 1.19801 7.5818 1.59641L8.64521 3.50081C10.4948 2.76521 13.2385 2.65481 15.3581 3.50081L16.4216 1.59641C16.6556 1.19681 16.448 0.691612 16.0123 0.565612H16.0135Z" fill="#96DCFB"/>
<path d="M15.2643 5.03479C13.9488 4.10839 10.0877 4.06879 8.7254 5.03959C8.14088 5.45239 7.83002 6.1004 7.83602 6.7772C9.18629 6.062 10.7706 5.71759 11.9996 5.71759C13.4963 5.71759 14.8994 6.1076 16.1633 6.7772C16.1693 6.1256 15.8788 5.46799 15.2655 5.03599L15.2643 5.03479Z" fill="#96DCFB"/>
</g>
</g>
<defs>
<clipPath id="clip0_470_30946">
<rect width="24" height="24" fill="white"/>
</clipPath>
</defs>
</svg>
