<svg width="28" height="28" viewBox="0 0 28 28" fill="none" xmlns="http://www.w3.org/2000/svg">
<path fill-rule="evenodd" clip-rule="evenodd" d="M1.3125 6C0.587626 6 0 6.58763 0 7.3125C0 8.03737 0.587626 8.625 1.3125 8.625H26.6875C27.4124 8.625 28 8.03737 28 7.3125C28 6.58763 27.4124 6 26.6875 6H1.3125ZM5.25 14.3125C5.25 13.5876 5.83763 13 6.5625 13H21.4375C22.1624 13 22.75 13.5876 22.75 14.3125C22.75 15.0374 22.1624 15.625 21.4375 15.625H6.5625C5.83763 15.625 5.25 15.0374 5.25 14.3125ZM10.5 21.3125C10.5 20.5876 11.0876 20 11.8125 20H16.1875C16.9124 20 17.5 20.5876 17.5 21.3125C17.5 22.0374 16.9124 22.625 16.1875 22.625H11.8125C11.0876 22.625 10.5 22.0374 10.5 21.3125Z" fill="#6E6E73"/>
</svg>
