<svg width="16" height="17" viewBox="0 0 16 17" fill="none" xmlns="http://www.w3.org/2000/svg">
<path d="M11.6667 5.83333C12.5871 5.83333 13.3333 5.08713 13.3333 4.16667C13.3333 3.24619 12.5871 2.5 11.6667 2.5C10.7462 2.5 10 3.24619 10 4.16667C10 5.08713 10.7462 5.83333 11.6667 5.83333Z" fill="white" stroke="#3465D9" stroke-width="1.5" stroke-linejoin="round"/>
<path d="M4.33268 10.1668C5.25315 10.1668 5.99935 9.42063 5.99935 8.50016C5.99935 7.5797 5.25315 6.8335 4.33268 6.8335C3.41222 6.8335 2.66602 7.5797 2.66602 8.50016C2.66602 9.42063 3.41222 10.1668 4.33268 10.1668Z" fill="white" stroke="#3465D9" stroke-width="1.5" stroke-linejoin="round"/>
<path d="M9.99966 5.0249L5.7793 7.58187" stroke="#3465D9" stroke-width="1.5" stroke-linecap="round" stroke-linejoin="round"/>
<path d="M5.7793 9.35449L10.2261 11.9822" stroke="#3465D9" stroke-width="1.5" stroke-linecap="round" stroke-linejoin="round"/>
<path d="M11.6667 11.1665C12.5871 11.1665 13.3333 11.9127 13.3333 12.8332C13.3333 13.7536 12.5871 14.4998 11.6667 14.4998C10.7462 14.4998 10 13.7536 10 12.8332C10 11.9127 10.7462 11.1665 11.6667 11.1665Z" fill="white" stroke="#3465D9" stroke-width="1.5" stroke-linejoin="round"/>
</svg>
