<svg width="24" height="24" viewBox="0 0 24 24" fill="none" xmlns="http://www.w3.org/2000/svg">
<g clip-path="url(#clip0_470_30985)">
<mask id="mask0_470_30985" style="mask-type:luminance" maskUnits="userSpaceOnUse" x="0" y="0" width="25" height="24">
<path d="M24.0047 0H0V24H24.0047V0Z" fill="white"/>
</mask>
<g mask="url(#mask0_470_30985)">
<path d="M13.9121 14.724C17.9401 14.724 21.2167 11.4216 21.2167 7.362C21.2167 3.3024 17.9401 0 13.9121 0C9.88407 0 6.60742 3.3024 6.60742 7.362C6.60742 11.4216 9.88407 14.724 13.9121 14.724ZM11.5644 9.6588C11.7769 9.3336 12.2125 9.2424 12.5378 9.4548C13.0107 9.7644 13.1895 9.7932 13.8137 9.7884C14.4234 9.7848 14.7774 9.33 14.8483 8.91C14.8819 8.706 14.8951 8.2068 14.2769 7.9872C13.5508 7.7304 12.8079 7.4376 12.2906 7.032C11.7733 6.6264 11.5368 5.9268 11.6724 5.2056C11.8201 4.4244 12.365 3.8016 13.0959 3.582C13.1031 3.5796 13.1091 3.5784 13.1163 3.576V3.3096C13.1163 2.922 13.4308 2.6064 13.8185 2.6064C14.2061 2.6064 14.5218 2.9208 14.5218 3.3096V3.5316C14.9983 3.6456 15.332 3.864 15.4676 3.9648C15.7784 4.1976 15.842 4.638 15.6092 4.9488C15.3776 5.2596 14.9371 5.3232 14.6262 5.0904C14.4822 4.9824 14.0837 4.7508 13.5016 4.9272C13.1607 5.0292 13.0731 5.3652 13.0539 5.466C13.0167 5.6628 13.0587 5.8476 13.1583 5.9256C13.516 6.2064 14.1617 6.456 14.745 6.6612C15.8217 7.0416 16.4194 8.0388 16.2345 9.1416C16.1433 9.6828 15.8709 10.1856 15.4676 10.5564C15.1915 10.8096 14.8723 10.9896 14.5218 11.0916V11.4108C14.5218 11.7984 14.2073 12.114 13.8185 12.114C13.4296 12.114 13.1163 11.7996 13.1163 11.4108V11.1612C12.6614 11.106 12.2797 10.9644 11.7684 10.6296C11.4432 10.4172 11.352 9.9816 11.5644 9.6564V9.6588Z" fill="#96DCFB"/>
<path d="M2.66112 17.0845H1.0576C0.669928 17.0845 0.355469 17.3989 0.355469 17.7877V23.2969C0.355469 23.6845 0.669928 24.0001 1.0576 24.0001H2.66112V17.0857V17.0845Z" fill="#5485D3"/>
<path d="M23.4358 17.0351C22.1192 15.7175 19.9755 15.7175 18.6577 17.0351L16.5525 19.1399L15.6895 20.0027C15.3414 20.3519 14.8685 20.5475 14.3752 20.5475H10.1792C9.79993 20.5475 9.47348 20.2559 9.45548 19.8779C9.43627 19.4735 9.75913 19.1399 10.1588 19.1399H14.4244C15.2814 19.1399 16.0256 18.5291 16.1732 17.6855C16.2068 17.4911 16.2236 17.2919 16.2236 17.0891C16.2248 16.7003 15.9091 16.3847 15.5203 16.3847H13.1834C12.4201 16.3847 11.6867 16.0379 10.9102 15.6719C10.0952 15.2867 9.25263 14.8895 8.26844 14.8235C7.40667 14.7659 6.5437 14.8607 5.70233 15.1031C4.80095 15.3635 4.15402 16.1639 4.0748 17.0879C4.0724 17.0879 4.06881 17.0879 4.06641 17.0879V23.9975L16.1744 24.0011C17.0074 24.0011 17.7899 23.6771 18.3792 23.0879L23.4358 18.0311C23.7107 17.7563 23.7107 17.3111 23.4358 17.0363V17.0351Z" fill="#5485D3"/>
</g>
</g>
<defs>
<clipPath id="clip0_470_30985">
<rect width="24" height="24" fill="white"/>
</clipPath>
</defs>
</svg>
