<svg width="24" height="24" viewBox="0 0 24 24" fill="none" xmlns="http://www.w3.org/2000/svg">
<g clip-path="url(#clip0_981_51686)">
<mask id="mask0_981_51686" style="mask-type:luminance" maskUnits="userSpaceOnUse" x="0" y="0" width="24" height="24">
<path d="M24 0H0V24H24V0Z" fill="white"/>
</mask>
<g mask="url(#mask0_981_51686)">
<path d="M7.67799 11.0173C7.67799 10.6189 7.35519 10.2961 6.95679 10.2961H3.2212C2.8228 10.2961 2.5 10.6189 2.5 11.0173V21.1153H7.67799V11.0173Z" fill="#5485D3"/>
<path d="M21.5864 6.94068C21.5864 6.54228 21.2636 6.21948 20.8652 6.21948H17.1284C16.7312 6.21948 16.4072 6.54228 16.4072 6.94068V21.1151H21.5864V6.94068Z" fill="#5485D3"/>
<path d="M14.6301 12.3418C14.6301 11.9446 14.3073 11.6206 13.9101 11.6206H10.1733C9.77495 11.6206 9.45215 11.9446 9.45215 12.3418V21.115H14.6301V12.3418Z" fill="#5485D3"/>
<path d="M22.1923 22.5576H1.89308C1.49468 22.5576 1.17188 22.8804 1.17188 23.2788C1.17188 23.6772 1.49468 24 1.89308 24H22.1923C22.5907 24 22.9135 23.6772 22.9135 23.2788C22.9135 22.8804 22.5907 22.5576 22.1923 22.5576Z" fill="#5485D3"/>
<path d="M6.20377 8.262C6.22537 8.262 6.24697 8.262 6.26857 8.2596C6.33337 8.2536 7.88976 8.1096 10.0978 7.3272C12.1258 6.6096 15.1198 5.1888 17.8726 2.5008C17.887 2.4876 17.899 2.4732 17.911 2.4588V3.5688C17.911 3.9672 18.2338 4.29 18.6322 4.29C19.0306 4.29 19.3534 3.9672 19.3534 3.5688V0.721201C19.3534 0.322801 19.0306 0 18.6322 0H15.7846C15.3862 0 15.0634 0.322801 15.0634 0.721201C15.0634 1.1196 15.3862 1.4424 15.7846 1.4424H16.8946C16.885 1.4508 16.8742 1.4592 16.8646 1.4688C14.3158 3.9576 11.5414 5.28 9.66338 5.9508C7.61618 6.6828 6.15576 6.822 6.14136 6.8232C5.74416 6.858 5.45137 7.2084 5.48737 7.6044C5.51977 7.98 5.83537 8.262 6.20377 8.262Z" fill="#96DCFB"/>
</g>
</g>
<defs>
<clipPath id="clip0_981_51686">
<rect width="24" height="24" fill="white"/>
</clipPath>
</defs>
</svg>
