<svg width="43" height="42" viewBox="0 0 43 42" fill="none" xmlns="http://www.w3.org/2000/svg">
<g clip-path="url(#clip0_327_16770)">
<mask id="mask0_327_16770" style="mask-type:luminance" maskUnits="userSpaceOnUse" x="0" y="0" width="43" height="42">
<path d="M42.5 0H0.5V42H42.5V0Z" fill="white"/>
</mask>
<g mask="url(#mask0_327_16770)">
<path d="M27.0633 11.7201C27.0633 9.4479 25.6941 7.4928 23.739 6.6297C24.6231 5.9535 25.1943 4.8909 25.1943 3.6939C25.1943 1.6569 23.5374 0 21.5004 0C19.4634 0 17.8065 1.6569 17.8065 3.6939C17.8065 4.8888 18.3777 5.9535 19.2618 6.6297C17.3067 7.4928 15.9375 9.45 15.9375 11.7201V14.8428H27.0633V11.7201Z" fill="#5485D3"/>
<path d="M23.739 33.785C24.6231 33.1088 25.1943 32.0462 25.1943 30.8492C25.1943 28.8122 23.5374 27.1553 21.5004 27.1553C19.4634 27.1553 17.8065 28.8122 17.8065 30.8492C17.8065 32.0441 18.3777 33.1088 19.2618 33.785C17.3067 34.6481 15.9375 36.6053 15.9375 38.8754V41.9981H27.0633V38.8754C27.0633 36.6032 25.6941 34.6481 23.739 33.785Z" fill="#5485D3"/>
<path d="M8.3015 33.785C9.1856 33.1088 9.7568 32.0462 9.7568 30.8492C9.7568 28.8122 8.0999 27.1553 6.0629 27.1553C4.0259 27.1553 2.369 28.8122 2.369 30.8492C2.369 32.0441 2.9402 33.1088 3.8243 33.785C1.8692 34.6481 0.5 36.6053 0.5 38.8754V41.9981H11.6258V38.8754C11.6258 36.6032 10.2566 34.6481 8.3015 33.785Z" fill="#5485D3"/>
<path d="M39.1755 33.785C40.0596 33.1088 40.6308 32.0462 40.6308 30.8492C40.6308 28.8122 38.9739 27.1553 36.9369 27.1553C34.8999 27.1553 33.243 28.8122 33.243 30.8492C33.243 32.0441 33.8142 33.1088 34.6983 33.785C32.7432 34.6481 31.374 36.6053 31.374 38.8754V41.9981H42.4998V38.8754C42.4998 36.6032 41.1306 34.6481 39.1755 33.785Z" fill="#5485D3"/>
<path d="M7.29323 22.2308H20.2691V24.6941H22.7303V22.2308H35.7062V24.6941H38.1674V19.7696H22.7303V17.3042H20.2691V19.7696H4.83203V24.6941H7.29323V22.2308Z" fill="#4DC1F7"/>
</g>
</g>
<defs>
<clipPath id="clip0_327_16770">
<rect width="42" height="42" fill="white" transform="translate(0.5)"/>
</clipPath>
</defs>
</svg>
