<svg width="43" height="42" viewBox="0 0 43 42" fill="none" xmlns="http://www.w3.org/2000/svg">
<g clip-path="url(#clip0_327_16788)">
<path d="M1.5 6.7V32.56C1.5 36.25 4.49 39.26 8.18 39.26H20.49C19.02 37.04 18.23 34.43 18.23 31.71C18.23 24.09 24.44 17.88 32.06 17.88C33.16 17.88 33.46 18 33.63 18V6.7C33.63 3.01 30.62 0 26.95 0H8.18C4.49 0 1.5 3.01 1.5 6.7ZM13.28 30.79H9.73C8.77 30.79 7.98 30 7.98 29.04C7.98 28.08 8.77 27.29 9.73 27.29H13.28C14.24 27.29 15.03 28.06 15.03 29.04C15.03 30.02 14.24 30.79 13.28 30.79ZM15.13 21.37H9.73C8.77 21.37 7.98 20.6 7.98 19.62C7.98 18.64 8.77 17.87 9.73 17.87H15.13C16.09 17.87 16.88 18.66 16.88 19.62C16.88 20.58 16.09 21.37 15.13 21.37ZM9.73 8.47H25.38C26.34 8.47 27.13 9.26 27.13 10.22C27.13 11.18 26.34 11.97 25.38 11.97H9.74C8.78 11.97 7.99 11.2 7.99 10.22C7.99 9.24 8.78 8.47 9.74 8.47H9.73Z" fill="#4DC1F7"/>
<path d="M32.0605 21.3701C26.3405 21.3701 21.7305 25.9701 21.7305 31.7001C21.7305 37.4301 26.5605 42.0001 32.0605 42.0001C37.5605 42.0001 42.3805 37.3801 42.3805 31.7001C42.3805 26.0201 37.6705 21.3701 32.0605 21.3701ZM34.7905 34.6201C34.0905 35.3201 33.0105 35.3201 32.3105 34.6201L30.6505 32.9601C30.3205 32.6301 30.1405 32.1901 30.1405 31.7201V28.1901C30.1405 27.2101 30.9105 26.4401 31.8905 26.4401C32.8705 26.4401 33.6405 27.2101 33.6405 28.1901V31.0001L34.7905 32.1501C35.4705 32.8301 35.4705 33.9301 34.7905 34.6201Z" fill="#FECD59"/>
</g>
<defs>
<clipPath id="clip0_327_16788">
<rect width="42" height="42" fill="white" transform="translate(0.5)"/>
</clipPath>
</defs>
</svg>
