<svg width="16" height="16" viewBox="0 0 16 16" fill="none" xmlns="http://www.w3.org/2000/svg">
<path d="M8.0004 6.5V2.25C8.0004 1.91848 7.8687 1.60054 7.63428 1.36612C7.39986 1.1317 7.08192 1 6.7504 1C6.41888 1 6.10094 1.1317 5.86652 1.36612C5.6321 1.60054 5.5004 1.91848 5.5004 2.25V9.82913L4.12993 7.45541C4.04793 7.3131 3.93869 7.18835 3.80845 7.08829C3.67821 6.98822 3.52953 6.9148 3.3709 6.87223C3.21228 6.82965 3.04682 6.81876 2.88398 6.84016C2.72114 6.86156 2.56411 6.91485 2.42187 6.99697C2.27964 7.07909 2.15498 7.18844 2.05502 7.31876C1.95507 7.44908 1.88177 7.59782 1.83933 7.75648C1.79689 7.91514 1.78613 8.08062 1.80767 8.24344C1.82921 8.40626 1.88263 8.56324 1.96487 8.70541C4.0004 13 5.23898 14.5 8.0004 14.5C8.65701 14.5 9.30719 14.3707 9.91382 14.1194C10.5204 13.8681 11.0716 13.4998 11.5359 13.0355C12.0002 12.5712 12.3685 12.02 12.6198 11.4134C12.8711 10.8068 13.0004 10.1566 13.0004 9.5V7C13.0004 6.66848 12.8687 6.35054 12.6343 6.11612C12.3999 5.8817 12.0819 5.75 11.7504 5.75C11.4189 5.75 11.1009 5.8817 10.8665 6.11612C10.6321 6.35054 10.5004 6.66848 10.5004 7" stroke="white" stroke-linecap="round" stroke-linejoin="round"/>
<path d="M10.5 7V6.25C10.5 5.91848 10.3683 5.60054 10.1339 5.36612C9.89946 5.1317 9.58152 5 9.25 5C8.91848 5 8.60054 5.1317 8.36612 5.36612C8.1317 5.60054 8 5.91848 8 6.25V6.5" stroke="white" stroke-linecap="round" stroke-linejoin="round"/>
</svg>
