<svg width="43" height="42" viewBox="0 0 43 42" fill="none" xmlns="http://www.w3.org/2000/svg">
<g clip-path="url(#clip0_327_16736)">
<mask id="mask0_327_16736" style="mask-type:luminance" maskUnits="userSpaceOnUse" x="0" y="0" width="43" height="42">
<path d="M42.5 0H0.5V42H42.5V0Z" fill="white"/>
</mask>
<g mask="url(#mask0_327_16736)">
<path d="M12.14 11.7001C13.35 10.4901 14.77 9.53008 16.35 8.86008C17.98 8.17008 19.72 7.82008 21.5 7.82008C23.28 7.82008 25.02 8.17008 26.65 8.86008C28.23 9.53008 29.64 10.4801 30.86 11.7001C31.39 12.2201 31.86 12.7901 32.29 13.3801V11.9601C32.29 7.41008 28.59 3.71008 24.04 3.71008H13.79V0.0800781L0.5 8.46008L10.03 14.4601C10.61 13.4601 11.32 12.5301 12.14 11.7001Z" fill="#5485D3"/>
<path d="M42.5 33.6602L32.97 27.6602C32.39 28.6602 31.68 29.5902 30.86 30.4202C29.65 31.6302 28.23 32.5902 26.65 33.2502C25.02 33.9402 23.28 34.2902 21.5 34.2902C19.72 34.2902 17.98 33.9402 16.35 33.2502C14.77 32.5802 13.36 31.6302 12.14 30.4202C11.61 29.9002 11.14 29.3302 10.71 28.7402V30.1602C10.71 34.7102 14.41 38.4102 18.96 38.4102H29.2V42.0402L42.49 33.6602H42.5Z" fill="#5485D3"/>
<path d="M21.5 10.3101C15.57 10.3101 10.75 15.1301 10.75 21.0601C10.75 26.9901 15.57 31.8101 21.5 31.8101C27.43 31.8101 32.25 26.9901 32.25 21.0601C32.25 15.1301 27.43 10.3101 21.5 10.3101ZM22.69 26.4701V27.0701C22.69 27.7201 22.16 28.2501 21.5 28.2501C20.84 28.2501 20.31 27.7201 20.31 27.0701V26.3501C19.12 25.9801 18.03 25.2501 17.71 24.8001C17.34 24.2601 17.47 23.5201 18 23.1501C18.5 22.8001 19.19 22.8901 19.58 23.3501C19.86 23.5901 20.94 24.2201 21.7 24.2201C22.46 24.2201 23.03 23.7601 23.11 23.3201C23.22 22.7401 22.32 22.3601 22.04 22.2601C20.69 21.7601 19.5 21.2301 19.45 21.2101C19.39 21.1801 19.34 21.1501 19.28 21.1201C17.25 19.8001 17.62 16.6501 20.18 15.7901V15.0701C20.18 14.4101 20.71 13.8801 21.37 13.8801C22.03 13.8801 22.56 14.4101 22.56 15.0701V15.6501C23.31 15.8101 24.05 16.1501 24.73 16.6801C25.31 17.1301 25.35 17.8601 24.98 18.3501C24.6 18.8501 23.86 19.0101 23.27 18.5501C22.76 18.1501 21.94 17.7301 20.99 18.0201C20.31 18.2201 20.23 18.8301 20.54 19.0901C20.86 19.2301 21.83 19.6501 22.88 20.0401C26.82 21.4901 25.97 25.7201 22.7 26.4901L22.69 26.4701Z" fill="#FECD59"/>
</g>
</g>
<defs>
<clipPath id="clip0_327_16736">
<rect width="42" height="42" fill="white" transform="translate(0.5)"/>
</clipPath>
</defs>
</svg>
