<svg width="43" height="42" viewBox="0 0 43 42" fill="none" xmlns="http://www.w3.org/2000/svg">
<g clip-path="url(#clip0_327_16803)">
<path d="M9.49805 7.5C9.49805 8.328 8.82605 9 7.99805 9C7.17005 9 6.49805 8.328 6.49805 7.5C6.49805 6.672 7.17005 6 7.99805 6C8.82605 6 9.49805 6.672 9.49805 7.5Z" fill="#4DC1F7"/>
<path d="M5.00195 7.5C5.00195 8.328 4.32995 9 3.50195 9C2.67395 9 2.00195 8.328 2.00195 7.5C2.00195 6.672 2.67395 6 3.50195 6C4.32995 6 5.00195 6.672 5.00195 7.5Z" fill="#4DC1F7"/>
<path d="M5.00195 12C5.00195 12.828 4.32995 13.5 3.50195 13.5C2.67395 13.5 2.00195 12.828 2.00195 12C2.00195 11.172 2.67395 10.5 3.50195 10.5C4.32995 10.5 5.00195 11.172 5.00195 12Z" fill="#4DC1F7"/>
<path d="M5.00195 16.5C5.00195 17.328 4.32995 18 3.50195 18C2.67395 18 2.00195 17.328 2.00195 16.5C2.00195 15.672 2.67395 15 3.50195 15C4.32995 15 5.00195 15.672 5.00195 16.5Z" fill="#4DC1F7"/>
<path d="M35.002 6C35.83 6 36.502 6.672 36.502 7.5C36.502 8.328 35.83 9 35.002 9C34.174 9 33.502 8.328 33.502 7.5C33.502 6.672 34.174 6 35.002 6Z" fill="#4DC1F7"/>
<path d="M39.498 6C40.326 6 40.998 6.672 40.998 7.5C40.998 8.328 40.326 9 39.498 9C38.67 9 37.998 8.328 37.998 7.5C37.998 6.672 38.67 6 39.498 6Z" fill="#4DC1F7"/>
<path d="M39.498 10.5C40.326 10.5 40.998 11.172 40.998 12C40.998 12.828 40.326 13.5 39.498 13.5C38.67 13.5 37.998 12.828 37.998 12C37.998 11.172 38.67 10.5 39.498 10.5Z" fill="#4DC1F7"/>
<path d="M39.498 15C40.326 15 40.998 15.672 40.998 16.5C40.998 17.328 40.326 18 39.498 18C38.67 18 37.998 17.328 37.998 16.5C37.998 15.672 38.67 15 39.498 15Z" fill="#4DC1F7"/>
<path d="M25.998 25.5C25.998 27.9864 23.9844 30 21.498 30C19.0116 30 16.998 27.9864 16.998 25.5C16.998 23.0136 19.0116 21 21.498 21C23.9844 21 25.998 23.0136 25.998 25.5Z" fill="#5485D3"/>
<path d="M27.502 37.5V41.2512C27.502 41.664 27.166 42 26.7532 42H16.2508C15.838 42 15.502 41.664 15.502 41.2512V37.5C15.502 34.1856 18.1876 31.5 21.502 31.5C24.8164 31.5 27.502 34.1856 27.502 37.5Z" fill="#5485D3"/>
<path d="M41 25.5C41 27.9864 38.9864 30 36.5 30C34.0136 30 32 27.9864 32 25.5C32 23.0136 34.0136 21 36.5 21C38.9864 21 41 23.0136 41 25.5Z" fill="#5485D3"/>
<path d="M42.498 37.5V41.2512C42.498 41.664 42.162 42 41.7492 42H31.2468C30.834 42 30.498 41.664 30.498 41.2512V37.5C30.498 34.1856 33.1836 31.5 36.498 31.5C39.8124 31.5 42.498 34.1856 42.498 37.5Z" fill="#5485D3"/>
<path d="M11.002 25.5C11.002 27.9864 8.98835 30 6.50195 30C4.01555 30 2.00195 27.9864 2.00195 25.5C2.00195 23.0136 4.01555 21 6.50195 21C8.98835 21 11.002 23.0136 11.002 25.5Z" fill="#5485D3"/>
<path d="M12.5 37.5V41.2512C12.5 41.664 12.164 42 11.7512 42H1.2488C0.836 42 0.5 41.664 0.5 41.2512V37.5C0.5 34.1856 3.1856 31.5 6.5 31.5C9.8144 31.5 12.5 34.1856 12.5 37.5Z" fill="#5485D3"/>
<path d="M20.8762 3.1896L19.249 4.2744V0H23.7514V4.2744L22.1242 3.1896C21.7474 2.9376 21.253 2.9376 20.8762 3.1896Z" fill="#4DC1F7"/>
<path d="M30.502 0.7488V14.2512C30.502 14.664 30.166 15 29.7532 15H13.2508C12.838 15 12.502 14.664 12.502 14.2512V0.7488C12.502 0.336 12.838 0 13.2508 0H17.002V6.3744C17.002 7.2696 18.0004 7.8096 18.7516 7.3104L21.502 5.4768L24.2524 7.3104C25.0036 7.8072 26.002 7.2696 26.002 6.3744V0H29.7532C30.166 0 30.502 0.336 30.502 0.7488Z" fill="#4DC1F7"/>
</g>
<defs>
<clipPath id="clip0_327_16803">
<rect width="42" height="42" fill="white" transform="translate(0.5)"/>
</clipPath>
</defs>
</svg>
