<svg width="43" height="42" viewBox="0 0 43 42" fill="none" xmlns="http://www.w3.org/2000/svg">
<g clip-path="url(#clip0_327_16759)">
<path d="M8.56001 31.21H3.01001C1.62378 31.21 0.5 32.3337 0.5 33.72V39.27C0.5 40.6562 1.62378 41.78 3.01001 41.78H8.56001C9.94625 41.78 11.07 40.6562 11.07 39.27V33.72C11.07 32.3337 9.94625 31.21 8.56001 31.21Z" fill="#5485D3"/>
<path d="M24.27 31.21H18.72C17.3337 31.21 16.21 32.3337 16.21 33.72V39.27C16.21 40.6562 17.3337 41.78 18.72 41.78H24.27C25.6562 41.78 26.78 40.6562 26.78 39.27V33.72C26.78 32.3337 25.6562 31.21 24.27 31.21Z" fill="#5485D3"/>
<path d="M39.9897 31.21H34.4397C33.0534 31.21 31.9297 32.3337 31.9297 33.72V39.27C31.9297 40.6562 33.0534 41.78 34.4397 41.78H39.9897C41.3759 41.78 42.4997 40.6562 42.4997 39.27V33.72C42.4997 32.3337 41.3759 31.21 39.9897 31.21Z" fill="#5485D3"/>
<path d="M22.71 21.5801H20.29V28.6401H22.71V21.5801Z" fill="#FECD59"/>
<path d="M38.4203 28.6298H36.0003V27.2198H6.99031V28.6298H4.57031V26.0098C4.57031 25.3398 5.11032 24.7998 5.78032 24.7998H37.2103C37.8803 24.7998 38.4203 25.3398 38.4203 26.0098V28.6298Z" fill="#FECD59"/>
<path d="M21.5 1C15.57 1 10.75 5.82 10.75 11.75C10.75 17.68 15.57 22.5 21.5 22.5C27.43 22.5 32.25 17.68 32.25 11.75C32.25 5.82 27.43 1 21.5 1ZM22.69 17.16V17.76C22.69 18.41 22.16 18.94 21.5 18.94C20.84 18.94 20.31 18.41 20.31 17.76V17.04C19.12 16.67 18.03 15.94 17.71 15.49C17.34 14.95 17.47 14.21 18 13.84C18.5 13.49 19.19 13.58 19.58 14.04C19.86 14.28 20.94 14.91 21.7 14.91C22.46 14.91 23.03 14.45 23.11 14.01C23.22 13.43 22.32 13.05 22.04 12.95C20.69 12.45 19.5 11.92 19.45 11.9C19.39 11.87 19.34 11.84 19.28 11.81C17.25 10.49 17.62 7.34 20.18 6.48V5.76C20.18 5.1 20.71 4.57 21.37 4.57C22.03 4.57 22.56 5.1 22.56 5.76V6.34C23.31 6.5 24.05 6.84 24.73 7.37C25.31 7.82 25.35 8.55 24.98 9.04C24.6 9.54 23.86 9.7 23.27 9.24C22.76 8.84 21.94 8.42 20.99 8.71C20.31 8.91 20.23 9.52 20.54 9.78C20.86 9.92 21.83 10.34 22.88 10.73C26.82 12.18 25.97 16.41 22.7 17.18L22.69 17.16Z" fill="#FECD59"/>
</g>
<defs>
<clipPath id="clip0_327_16759">
<rect width="42" height="42" fill="white" transform="translate(0.5)"/>
</clipPath>
</defs>
</svg>
