<svg width="42" height="42" viewBox="0 0 42 42" fill="none" xmlns="http://www.w3.org/2000/svg">
<g clip-path="url(#clip0_335_11609)">
<mask id="mask0_335_11609" style="mask-type:luminance" maskUnits="userSpaceOnUse" x="0" y="0" width="42" height="42">
<path d="M42 0H0V42H42V0Z" fill="white"/>
</mask>
<g mask="url(#mask0_335_11609)">
<path d="M17.18 9.26979V5.27979C8.51 5.88979 1.41 12.5498 0.25 21.1498H4.28C5.39 14.7998 10.67 9.85979 17.19 9.26979H17.18Z" fill="#5485D3"/>
<path d="M19.79 38.0098V41.9998C29.29 41.3298 36.83 33.4198 36.89 23.7598H32.91C32.85 31.1598 27.19 37.3398 19.79 38.0098Z" fill="#5485D3"/>
<path d="M30.5397 15.72H40.5897C41.4197 15.72 42.0497 14.95 41.8597 14.14C40.2197 6.79999 34.1797 1.15999 26.7197 0.0199917C25.9297 -0.100008 25.2197 0.509992 25.2197 1.30999V10.88C27.3697 12.02 29.2097 13.69 30.5397 15.72Z" fill="#5485D3"/>
<path d="M4.06008 23.7598H0.0800781C0.0800781 32.9598 7.27008 41.2698 17.1701 41.9998H17.1801V38.0098C9.80008 37.3398 4.12008 31.1798 4.06008 23.7598Z" fill="#5485D3"/>
<path d="M18.4899 11.8198C11.9699 11.8198 6.66992 17.1198 6.66992 23.6398C6.66992 30.1598 11.9699 35.4598 18.4899 35.4598C25.0099 35.4598 30.3099 30.1598 30.3099 23.6398C30.3099 17.1198 25.0099 11.8198 18.4899 11.8198ZM19.7899 29.5798V30.2398C19.7899 30.9598 19.2099 31.5398 18.4899 31.5398C17.7699 31.5398 17.1899 30.9598 17.1899 30.2398V29.4398C15.8799 29.0298 14.6799 28.2298 14.3299 27.7298C13.9199 27.1398 14.0599 26.3298 14.6499 25.9098C15.1999 25.5198 15.9599 25.6298 16.3899 26.1298C16.6999 26.3898 17.8899 27.0798 18.7199 27.0798C19.5499 27.0798 20.1799 26.5798 20.2699 26.0898C20.3899 25.4498 19.3999 25.0298 19.0999 24.9198C17.6199 24.3798 16.2999 23.7898 16.2499 23.7698C16.1899 23.7398 16.1299 23.7098 16.0699 23.6698C13.8399 22.2198 14.2399 18.7598 17.0599 17.8098V17.0198C17.0599 16.2998 17.6399 15.7198 18.3599 15.7198C19.0799 15.7198 19.6599 16.2998 19.6599 17.0198V17.6598C20.4899 17.8298 21.2899 18.2098 22.0399 18.7898C22.6699 19.2798 22.7199 20.0798 22.3199 20.6298C21.8999 21.1798 21.0899 21.3598 20.4399 20.8498C19.8799 20.4098 18.9799 19.9498 17.9299 20.2698C17.1899 20.4898 17.0899 21.1598 17.4299 21.4498C17.7799 21.5998 18.8499 22.0598 19.9999 22.4898C24.3299 24.0898 23.3999 28.7298 19.7999 29.5798H19.7899Z" fill="#4DC1F7"/>
</g>
</g>
<defs>
<clipPath id="clip0_335_11609">
<rect width="42" height="42" fill="white"/>
</clipPath>
</defs>
</svg>
