<svg width="43" height="42" viewBox="0 0 43 42" fill="none" xmlns="http://www.w3.org/2000/svg">
<g clip-path="url(#clip0_327_16748)">
<path d="M27.7869 12.4929V13.0931C27.7869 13.7332 27.2567 14.2633 26.6166 14.2633C25.9764 14.2633 25.4363 13.7332 25.4363 13.0931V12.3729C24.256 12.0028 23.1758 11.2826 22.8557 10.8325C22.4856 10.3024 22.6157 9.57225 23.1558 9.19216C23.6559 8.84207 24.3361 8.9321 24.7261 9.3922C25.0062 9.63226 26.0765 10.2524 26.8266 10.2524C27.5768 10.2524 28.147 9.7923 28.227 9.3622C28.327 8.78206 27.4368 8.41197 27.1667 8.30195C25.8264 7.81183 24.6361 7.29171 24.5861 7.2617C24.5361 7.2417 24.4761 7.21169 24.4261 7.17168C22.4156 5.86138 22.7757 2.74064 25.3163 1.88044V1.17027C25.3163 0.530124 25.8464 0 26.4866 0C27.1267 0 27.6668 0.530124 27.6668 1.17027V1.75041C28.407 1.91045 29.1372 2.25053 29.8073 2.77065C30.3875 3.22076 30.4375 3.94092 30.0674 4.44104C29.6873 4.94116 28.9571 5.09119 28.357 4.63109C27.8469 4.23099 27.0467 3.8309 26.0965 4.10096C25.4263 4.31101 25.3463 4.90115 25.6464 5.17121C25.9564 5.30124 26.9267 5.72134 27.9669 6.10143C31.8778 7.54177 31.0376 11.7428 27.7769 12.5029L27.7869 12.4929Z" fill="#5485D3"/>
<path d="M3.47023 29.4072H8.4614C9.00152 29.4072 9.43163 29.8373 9.43163 30.3775V41.03C9.43163 41.5701 9.00152 42.0002 8.4614 42.0002H3.47023C2.9301 42.0002 2.5 41.5701 2.5 41.03V30.3775C2.5 29.8373 2.9401 29.4072 3.47023 29.4072Z" fill="#5485D3"/>
<path d="M13.7925 23.8057H18.7837C19.3238 23.8057 19.7539 24.2358 19.7539 24.7759V41.0297C19.7539 41.5698 19.3238 41.9999 18.7837 41.9999H13.7925C13.2524 41.9999 12.8223 41.5698 12.8223 41.0297V24.7759C12.8223 24.2358 13.2624 23.8057 13.7925 23.8057Z" fill="#5485D3"/>
<path d="M24.1157 29.4072H29.1069C29.647 29.4072 30.0771 29.8373 30.0771 30.3775V41.03C30.0771 41.5701 29.647 42.0002 29.1069 42.0002H24.1157C23.5756 42.0002 23.1455 41.5701 23.1455 41.03V30.3775C23.1455 29.8373 23.5856 29.4072 24.1157 29.4072Z" fill="#5485D3"/>
<path d="M34.438 23.8057H39.4292C39.9693 23.8057 40.3994 24.2358 40.3994 24.7759V41.0297C40.3994 41.5698 39.9693 41.9999 39.4292 41.9999H34.438C33.8979 41.9999 33.4678 41.5698 33.4678 41.0297V24.7759C33.4678 24.2358 33.9079 23.8057 34.438 23.8057Z" fill="#5485D3"/>
<path d="M34.8882 18.7946C35.4583 19.2347 36.1585 19.5048 36.9387 19.5048C38.7991 19.5048 40.2995 17.9944 40.2995 16.144C40.2995 14.2936 38.7891 12.7832 36.9387 12.7832C35.0882 12.7832 33.5779 14.2936 33.5779 16.144C33.5779 16.4041 33.6179 16.6641 33.6779 16.9142L28.6767 20.1349C28.1066 19.6948 27.4064 19.4248 26.6263 19.4248C25.8461 19.4248 25.1459 19.6948 24.5758 20.1349L19.5746 16.9142C19.6346 16.6641 19.6746 16.4141 19.6746 16.144C19.6746 14.2836 18.1643 12.7832 16.3138 12.7832C14.4634 12.7832 12.953 14.2936 12.953 16.144C12.953 16.4041 12.9931 16.6641 13.0531 16.9142L8.0519 20.1349C7.48176 19.6948 6.7816 19.4248 6.00141 19.4248C4.14098 19.4248 2.64062 20.9351 2.64062 22.7856C2.64062 24.636 4.15098 26.1463 6.00141 26.1463C7.85185 26.1463 9.3622 24.646 9.3622 22.7856C9.3622 22.5255 9.32219 22.2654 9.26218 22.0154L14.2634 18.7946C14.8335 19.2347 15.5337 19.5048 16.3138 19.5048C17.094 19.5048 17.7942 19.2347 18.3643 18.7946L23.3655 22.0154C23.3055 22.2654 23.2655 22.5155 23.2655 22.7856C23.2655 24.646 24.7758 26.1463 26.6263 26.1463C28.4767 26.1463 29.987 24.646 29.987 22.7856C29.987 22.5255 29.947 22.2654 29.887 22.0154L34.8882 18.7946Z" fill="#4DC1F7"/>
</g>
<defs>
<clipPath id="clip0_327_16748">
<rect width="42" height="42" fill="white" transform="translate(0.5)"/>
</clipPath>
</defs>
</svg>
