<svg width="42" height="42" viewBox="0 0 42 42" fill="none" xmlns="http://www.w3.org/2000/svg">
<g clip-path="url(#clip0_327_16729)">
<path fill-rule="evenodd" clip-rule="evenodd" d="M20.57 35.9375H5.25L6.36002 38.0475C7.59002 40.3775 10.49 41.2775 12.82 40.0375L20.57 35.9375ZM21.42 5.65752H36.74L35.63 3.54752C34.4 1.21752 31.5 0.317524 29.17 1.55752L21.42 5.65752Z" fill="#2E5EA9"/>
<path fill-rule="evenodd" clip-rule="evenodd" d="M37.6 7.60742H4.39001C1.97001 7.60742 0 9.57742 0 12.0074V29.5874C0 32.0174 1.97001 33.9874 4.39001 33.9874H37.6C40.03 33.9874 42 32.0174 42 29.5874V12.0074C42 9.57742 40.03 7.60742 37.6 7.60742ZM11.23 22.2674H7.32001C6.52001 22.2674 5.86002 21.6074 5.86002 20.7974C5.86002 19.9874 6.52001 19.3374 7.32001 19.3374H11.23C12.04 19.3374 12.7 19.9874 12.7 20.7974C12.7 21.6074 12.04 22.2674 11.23 22.2674ZM22.18 26.2074V26.8074C22.18 27.4574 21.65 27.9874 21 27.9874C20.35 27.9874 19.81 27.4574 19.81 26.8074V26.0774C18.62 25.7074 17.53 24.9774 17.21 24.5274C16.84 23.9974 16.97 23.2574 17.51 22.8774C18.01 22.5274 18.7 22.6174 19.09 23.0774C19.37 23.3174 20.45 23.9474 21.21 23.9474C21.97 23.9474 22.54 23.4874 22.62 23.0474C22.72 22.4674 21.82 22.0874 21.55 21.9774C20.2 21.4874 19 20.9574 18.95 20.9274C18.9 20.9074 18.84 20.8774 18.79 20.8374C16.76 19.5174 17.13 16.3674 19.69 15.5074V14.7874C19.69 14.1374 20.22 13.6074 20.87 13.6074C21.52 13.6074 22.06 14.1374 22.06 14.7874V15.3674C22.81 15.5274 23.54 15.8674 24.22 16.3974C24.8 16.8474 24.85 17.5774 24.48 18.0774C24.1 18.5774 23.36 18.7374 22.76 18.2674C22.25 17.8674 21.44 17.4574 20.48 17.7374C19.8 17.9474 19.72 18.5474 20.03 18.8174C20.34 18.9474 21.32 19.3674 22.37 19.7574C26.31 21.2074 25.46 25.4374 22.18 26.2074ZM34.67 22.2674H30.77C29.96 22.2674 29.3 21.6074 29.3 20.7974C29.3 19.9874 29.96 19.3374 30.77 19.3374H34.67C35.48 19.3374 36.14 19.9874 36.14 20.7974C36.14 21.6074 35.48 22.2674 34.67 22.2674Z" fill="#4DC1F7"/>
</g>
<defs>
<clipPath id="clip0_327_16729">
<rect width="42" height="42" fill="white"/>
</clipPath>
</defs>
</svg>
