<svg width="43" height="42" viewBox="0 0 43 42" fill="none" xmlns="http://www.w3.org/2000/svg">
<g clip-path="url(#clip0_335_11621)">
<mask id="mask0_335_11621" style="mask-type:luminance" maskUnits="userSpaceOnUse" x="0" y="0" width="43" height="42">
<path d="M42.5 0H0.5V42H42.5V0Z" fill="white"/>
</mask>
<g mask="url(#mask0_335_11621)">
<path d="M39.4696 17.9797C38.7496 17.9797 38.1596 18.5697 38.1596 19.2897C38.1596 27.1397 32.6996 33.7197 25.3796 35.4797V33.8397C25.3796 32.6697 23.9696 32.0797 23.1396 32.9097L19.7096 36.3297C19.1996 36.8397 19.1996 37.6697 19.7096 38.1897L23.1396 41.6097C23.9596 42.4297 25.3796 41.8597 25.3796 40.6797V38.1697C34.1596 36.3697 40.7896 28.5797 40.7896 19.2797C40.7896 18.5597 40.1996 17.9697 39.4796 17.9697L39.4696 17.9797Z" fill="#5485D3"/>
<path d="M15.9399 34.9797C9.29991 32.6497 4.83991 26.3497 4.83991 19.2897C4.83991 17.2897 5.19991 15.3497 5.87991 13.5297L7.44991 14.4397C8.45991 15.0197 9.67991 14.0997 9.37991 12.9597L8.04991 7.99966C7.85991 7.29966 7.15991 6.88966 6.43991 7.06966L1.47991 8.39966C0.34991 8.69966 0.159911 10.2197 1.15991 10.7997L3.56991 12.1897C2.67991 14.4197 2.20991 16.8197 2.20991 19.2797C2.20991 27.4497 7.37991 34.7497 15.0699 37.4497C15.7699 37.6897 16.4999 37.3197 16.7399 36.6497C16.9799 35.9697 16.6199 35.2197 15.9299 34.9797H15.9399Z" fill="#5485D3"/>
<path d="M40.8503 8.60977L38.0303 9.36977C34.5903 3.68977 28.3303 0.00976562 21.5103 0.00976562C17.1103 0.00976562 12.9903 1.44977 9.59034 4.17977C9.03034 4.63977 8.93034 5.45977 9.39034 6.02977C9.85034 6.59977 10.6703 6.67977 11.2403 6.22977C14.1703 3.87977 17.7203 2.62977 21.5103 2.62977C27.1503 2.62977 32.3303 5.53977 35.3703 10.0798L33.8403 10.4898C32.7103 10.7898 32.5103 12.3098 33.5203 12.8898L37.9703 15.4598C38.2703 15.6298 38.6303 15.6798 38.9703 15.5898C39.3103 15.4998 39.5903 15.2798 39.7703 14.9798L42.3403 10.5298C42.9203 9.51977 42.0003 8.30977 40.8603 8.60977H40.8503Z" fill="#5485D3"/>
<path d="M21.5 8.75C15.71 8.75 11 13.46 11 19.25C11 25.04 15.71 29.75 21.5 29.75C27.29 29.75 32 25.04 32 19.25C32 13.46 27.29 8.75 21.5 8.75ZM22.66 24.53V25.12C22.66 25.76 22.14 26.28 21.5 26.28C20.86 26.28 20.34 25.76 20.34 25.12V24.41C19.18 24.05 18.11 23.33 17.8 22.89C17.43 22.37 17.56 21.64 18.08 21.28C18.57 20.93 19.24 21.03 19.63 21.48C19.9 21.72 20.96 22.33 21.7 22.33C22.44 22.33 23 21.88 23.08 21.45C23.18 20.88 22.31 20.51 22.04 20.41C20.72 19.93 19.56 19.41 19.51 19.38C19.45 19.35 19.4 19.32 19.35 19.29C17.37 18 17.73 14.92 20.23 14.08V13.38C20.23 12.74 20.75 12.22 21.39 12.22C22.03 12.22 22.55 12.74 22.55 13.38V13.95C23.29 14.1 24 14.44 24.67 14.96C25.23 15.4 25.28 16.11 24.92 16.59C24.55 17.08 23.83 17.24 23.25 16.78C22.75 16.39 21.96 15.98 21.02 16.26C20.36 16.46 20.28 17.05 20.58 17.31C20.89 17.45 21.84 17.86 22.86 18.23C26.71 19.65 25.88 23.77 22.68 24.53H22.66Z" fill="#FECD59"/>
</g>
</g>
<defs>
<clipPath id="clip0_335_11621">
<rect width="42" height="42" fill="white" transform="translate(0.5)"/>
</clipPath>
</defs>
</svg>
