<svg width="32" height="32" viewBox="0 0 32 32" fill="none" xmlns="http://www.w3.org/2000/svg">
<path fill-rule="evenodd" clip-rule="evenodd" d="M23.3766 21.4994C24.3328 22.4557 25.0859 23.5713 25.6109 24.8119C26.1547 26.0994 26.4297 27.4619 26.4359 28.8713C26.4359 29.4932 25.9328 29.9963 25.3109 29.9963C24.6891 29.9963 24.1859 29.4932 24.1859 28.8713C24.1859 26.6869 23.3359 24.6338 21.7922 23.09C20.2484 21.5463 18.1953 20.6963 16.0109 20.6963C13.8266 20.6963 11.7734 21.5463 10.2297 23.09C8.68594 24.6338 7.83594 26.6869 7.83594 28.8713C7.83594 29.4932 7.33281 29.9963 6.71094 29.9963C6.08906 29.9963 5.58594 29.4932 5.58594 28.8713C5.58594 27.4619 5.86094 26.0994 6.40469 24.8119C6.92969 23.5713 7.68281 22.4557 8.63906 21.4994C9.59531 20.5432 10.7109 19.79 11.9516 19.265C12.3734 19.0838 12.8078 18.9369 13.2453 18.815C12.0078 18.3963 10.8734 17.6963 9.92344 16.7463C8.29531 15.1213 7.40156 12.9588 7.40156 10.6619C7.40156 8.36504 8.29844 6.20254 9.92344 4.57754C11.5484 2.94941 13.7109 2.05566 16.0078 2.05566C18.3047 2.05566 20.4672 2.95254 22.0922 4.57754C23.7203 6.20254 24.6141 8.36504 24.6141 10.6619C24.6141 12.9588 23.7172 15.1213 22.0922 16.7463C21.1422 17.6963 20.0078 18.3963 18.7703 18.815C19.2078 18.9369 19.6422 19.0869 20.0641 19.265C21.3047 19.79 22.4203 20.5432 23.3766 21.4994ZM16.0047 4.30566C12.5016 4.30566 9.64844 7.15566 9.64844 10.6619C9.64844 14.165 12.4984 17.0182 16.0047 17.0182C19.5109 17.0182 22.3609 14.1682 22.3609 10.6619C22.3609 7.15566 19.5078 4.30566 16.0047 4.30566Z" fill="#2E5EA9"/>
</svg>
