<svg width="43" height="43" viewBox="0 0 43 43" fill="none" xmlns="http://www.w3.org/2000/svg">
<circle cx="21.5" cy="21.5" r="21" fill="#3465D9"/>
<path fill-rule="evenodd" clip-rule="evenodd" d="M21.0625 11C21.4106 11 21.7444 11.1383 21.9906 11.3844C22.2367 11.6306 22.375 11.9644 22.375 12.3125V19.75H29.8125C30.1606 19.75 30.4945 19.8883 30.7405 20.1344C30.9868 20.3806 31.125 20.7144 31.125 21.0625C31.125 21.4106 30.9868 21.7444 30.7405 21.9906C30.4945 22.2367 30.1606 22.375 29.8125 22.375H22.375V29.8125C22.375 30.1606 22.2367 30.4945 21.9906 30.7405C21.7444 30.9868 21.4106 31.125 21.0625 31.125C20.7144 31.125 20.3806 30.9868 20.1344 30.7405C19.8883 30.4945 19.75 30.1606 19.75 29.8125V22.375H12.3125C11.9644 22.375 11.6306 22.2367 11.3844 21.9906C11.1383 21.7444 11 21.4106 11 21.0625C11 20.7144 11.1383 20.3806 11.3844 20.1344C11.6306 19.8883 11.9644 19.75 12.3125 19.75H19.75V12.3125C19.75 11.9644 19.8883 11.6306 20.1344 11.3844C20.3806 11.1383 20.7144 11 21.0625 11Z" fill="white"/>
</svg>
