<svg width="43" height="51" viewBox="0 0 43 51" fill="none" xmlns="http://www.w3.org/2000/svg">
<path d="M40.0021 0C41.6525 0 43 1.40595 43 3.12783V46.9491C43 48.671 41.6525 50.0769 40.0021 50.0769H10.0008C8.35044 50.0769 7.00292 48.671 7.00292 46.9491V12.5192L19.0019 0H40.0021Z" fill="#F1F1F1"/>
<path opacity="0.3" d="M16.0021 12.5192H7.00097L19 0V9.3914C19 11.1133 17.6525 12.5192 16.0021 12.5192Z" fill="#AEAEAE"/>
<path d="M36.0047 39.2189C36.0047 40.0798 35.3309 40.7828 34.5057 40.7828H1.49893C0.673762 40.7828 0 40.0798 0 39.2189V23.5639C0 22.703 0.673762 22 1.49893 22H34.4981C35.3233 22 35.9971 22.703 35.9971 23.5639V39.211L36.0047 39.2189Z" fill="#F15642"/>
<path d="M7.95629 35.4989C7.67618 35.4989 7.45664 35.4199 7.30524 35.254C7.15383 35.0881 7.07812 34.8591 7.07812 34.5589V27.9399C7.07812 27.6319 7.15383 27.3949 7.31281 27.237C7.47178 27.079 7.69132 27 7.97143 27H10.7573C11.6506 27 12.3395 27.237 12.8316 27.7188C13.3237 28.1927 13.5659 28.8483 13.5659 29.6855C13.5659 30.5228 13.3237 31.1862 12.8316 31.6681C12.3395 32.1499 11.6506 32.3868 10.7573 32.3868H8.84959V34.5589C8.84959 34.8591 8.77389 35.096 8.63005 35.254C8.47864 35.4199 8.2591 35.4989 7.96386 35.4989H7.95629ZM8.84959 30.9414H10.4621C10.9163 30.9414 11.2645 30.8387 11.5068 30.6254C11.749 30.4122 11.8702 30.0962 11.8702 29.6776C11.8702 29.259 11.749 28.9509 11.5068 28.7456C11.2645 28.5402 10.9163 28.4375 10.4621 28.4375H8.84959V30.9414Z" fill="white"/>
<path d="M15.5952 35.4042C15.3 35.4042 15.0729 35.3173 14.9063 35.1514C14.7473 34.9855 14.6641 34.7407 14.6641 34.4247V27.9716C14.6641 27.6557 14.7473 27.4108 14.9063 27.2449C15.0653 27.0791 15.2924 26.9922 15.5952 26.9922H17.8209C19.1911 26.9922 20.2586 27.3555 21.008 28.0822C21.7651 28.8089 22.136 29.8436 22.136 31.1863C22.136 31.8577 22.0376 32.4501 21.8483 32.9714C21.6515 33.4927 21.3714 33.935 21.0005 34.2984C20.6295 34.6538 20.1829 34.9302 19.6529 35.1119C19.123 35.3015 18.5098 35.3884 17.8209 35.3884H15.5952V35.4042ZM16.4431 33.8876H17.7149C18.1464 33.8876 18.5249 33.8323 18.8505 33.7139C19.176 33.5954 19.441 33.4295 19.6529 33.2163C19.8649 33.003 20.0239 32.7186 20.1299 32.379C20.2359 32.0394 20.2888 31.6444 20.2888 31.1942C20.2888 30.2859 20.0769 29.6145 19.6454 29.1722C19.2139 28.7299 18.5704 28.5087 17.6998 28.5087H16.428V33.8876H16.4431Z" fill="white"/>
<path d="M24.4126 35.4989C24.1249 35.4989 23.8978 35.4121 23.7464 35.2462C23.5874 35.0803 23.5117 34.8434 23.5117 34.5274V27.9716C23.5117 27.6557 23.595 27.4108 23.754 27.2449C23.9129 27.0791 24.1401 26.9922 24.4429 26.9922H28.3416C28.5763 26.9922 28.758 27.0554 28.8791 27.1739C29.0002 27.3002 29.0608 27.474 29.0608 27.7031C29.0608 27.9321 29.0002 28.1217 28.8791 28.2481C28.758 28.3744 28.5763 28.4297 28.3416 28.4297H25.2908V30.4676H28.0994C28.3265 30.4676 28.5006 30.5307 28.6217 30.6492C28.7428 30.7756 28.8034 30.9573 28.8034 31.1942C28.8034 31.4312 28.7428 31.605 28.6217 31.7313C28.5006 31.8577 28.3265 31.9209 28.0994 31.9209H25.2908V34.5195C25.2908 35.1672 25.0031 35.4831 24.4202 35.4831L24.4126 35.4989Z" fill="white"/>
</svg>
