<svg width="17" height="16" viewBox="0 0 17 16" fill="none" xmlns="http://www.w3.org/2000/svg">
<path d="M3.5 2.50008L13.5 13.5001" stroke="white" stroke-width="1.5" stroke-linecap="round" stroke-linejoin="round"/>
<path d="M10.1815 9.84994C9.69092 10.2959 9.04325 10.5287 8.38099 10.4971C7.71874 10.4655 7.09614 10.1722 6.65016 9.68162C6.20417 9.19103 5.97132 8.54338 6.00283 7.88112C6.03433 7.21886 6.32762 6.59624 6.81816 6.15021" stroke="white" stroke-width="1.5" stroke-linecap="round" stroke-linejoin="round"/>
<path d="M5.12465 4.28717C2.57657 5.57752 1.5 8.00008 1.5 8.00008C1.5 8.00008 3.5 12.4996 8.5 12.4996C9.6715 12.5089 10.8284 12.2391 11.8748 11.7124" stroke="white" stroke-width="1.5" stroke-linecap="round" stroke-linejoin="round"/>
<path d="M13.5378 10.5688C14.9004 9.34834 15.4997 8.00008 15.4997 8.00008C15.4997 8.00008 13.4997 3.49959 8.49967 3.49959C8.06662 3.49888 7.63426 3.53409 7.20703 3.60485" stroke="white" stroke-width="1.5" stroke-linecap="round" stroke-linejoin="round"/>
<path d="M8.9707 5.54431C9.50206 5.64634 9.98601 5.91791 10.35 6.31827C10.7139 6.71863 10.9383 7.22621 10.9893 7.76486" stroke="white" stroke-width="1.5" stroke-linecap="round" stroke-linejoin="round"/>
</svg>
