<svg width="32" height="32" viewBox="0 0 32 32" fill="none" xmlns="http://www.w3.org/2000/svg">
<path d="M14.164 8.03513C14.7478 8.84616 15.0397 9.81641 15.0397 10.9475C15.0397 12.0787 14.7445 13.0489 14.1557 13.7555C13.8273 14.1518 13.3413 14.5151 12.7011 14.8418C13.6747 15.1951 14.4094 15.7573 14.9053 16.5236C15.4012 17.2915 15.6484 18.2236 15.6484 19.3199C15.6484 20.4162 15.3648 21.4644 14.7992 22.3616C14.4393 22.9571 13.9882 23.4579 13.4475 23.8626C12.8388 24.3287 12.1206 24.6471 11.2914 24.8196C10.4638 24.9921 9.56482 25.0783 8.59623 25.0783H0V6.00342H9.21819C11.5451 6.03825 13.1921 6.71493 14.1623 8.03513H14.164ZM3.80636 9.31719V13.5233H8.44365C9.27126 13.5233 9.94463 13.3657 10.4604 13.0506C10.9762 12.7354 11.235 12.1765 11.235 11.3754C11.235 10.4865 10.8933 9.89934 10.21 9.61573C9.62121 9.4167 8.86989 9.31885 7.95604 9.31885H3.8047L3.80636 9.31719ZM3.80636 16.6811V21.7679H8.43701C9.26463 21.7679 9.90814 21.6551 10.3692 21.4312C11.2051 21.0166 11.6231 20.2238 11.6231 19.0495C11.6231 18.0577 11.2184 17.3761 10.4074 17.0045C9.95458 16.7972 9.31936 16.6894 8.5017 16.6811H3.8047H3.80636Z" fill="#FCB813"/>
<path d="M20.6174 19.0279C20.7335 19.8538 20.964 20.4708 21.3057 20.8805C21.931 21.6251 23.004 21.9967 24.5233 21.9967C25.4338 21.9967 26.1719 21.8988 26.7391 21.7014C27.8155 21.3249 28.3545 20.6267 28.3545 19.6034C28.3545 19.0063 28.0908 18.5452 27.5634 18.2168C27.036 17.8984 26.1984 17.6164 25.054 17.371L23.0969 16.9414C21.173 16.5168 19.8511 16.0541 19.133 15.5549C17.914 14.7206 17.3053 13.417 17.3053 11.6424C17.3053 10.0236 17.9007 8.67855 19.0932 7.60713C20.2857 6.53571 22.0354 6 24.3458 6C26.2747 6 27.92 6.5042 29.2816 7.51425C30.6433 8.5243 31.3565 9.99046 31.4228 11.9111H27.7923C27.7259 10.823 27.2383 10.0518 26.3344 9.59241C25.7307 9.29055 24.981 9.13797 24.0838 9.13797C23.0853 9.13797 22.2892 9.33367 21.6938 9.72675C21.0984 10.1198 20.8015 10.6671 20.8015 11.3704C20.8015 12.0155 21.0951 12.4982 21.6822 12.8183C22.0587 13.0306 22.8597 13.281 24.0838 13.5663L27.2565 14.3143C28.6464 14.641 29.6896 15.0789 30.3829 15.6262C31.461 16.477 32 17.7077 32 19.3181C32 20.9286 31.3614 22.3416 30.0844 23.433C28.8073 24.5243 27.0044 25.0699 24.6725 25.0699C22.3406 25.0699 20.42 24.5326 19.0567 23.4578C17.6934 22.3831 17.0117 20.9053 17.0117 19.0245H20.6174V19.0279Z" fill="#295CA9"/>
</svg>
