<svg width="24" height="24" viewBox="0 0 24 24" fill="none" xmlns="http://www.w3.org/2000/svg">
<path d="M21.1667 4H2.83333C2.3731 4 2 4.3731 2 4.83333V19.8333C2 20.2936 2.3731 20.6667 2.83333 20.6667H21.1667C21.6269 20.6667 22 20.2936 22 19.8333V4.83333C22 4.3731 21.6269 4 21.1667 4Z" stroke="#6E6E73" stroke-width="2" stroke-linecap="round" stroke-linejoin="round"/>
<path d="M2 16.4999L7.24406 11.2558C7.32144 11.1784 7.41331 11.117 7.51441 11.0752C7.61552 11.0333 7.72388 11.0117 7.83332 11.0117C7.94275 11.0117 8.05112 11.0333 8.15222 11.0752C8.25333 11.117 8.34519 11.1784 8.42257 11.2558L13.0774 15.9106C13.1548 15.988 13.2466 16.0494 13.3477 16.0913C13.4489 16.1331 13.5572 16.1547 13.6667 16.1547C13.7761 16.1547 13.8844 16.1331 13.9856 16.0913C14.0867 16.0494 14.1785 15.988 14.2559 15.9106L16.4107 13.7558C16.4881 13.6784 16.58 13.617 16.6811 13.5752C16.7822 13.5333 16.8905 13.5117 17 13.5117C17.1094 13.5117 17.2178 13.5333 17.3189 13.5752C17.42 13.617 17.5119 13.6784 17.5892 13.7558L22 18.1665" stroke="#6E6E73" stroke-width="2" stroke-linecap="round" stroke-linejoin="round"/>
<path d="M14.916 10.6665C15.6064 10.6665 16.166 10.1069 16.166 9.4165C16.166 8.72615 15.6064 8.1665 14.916 8.1665C14.2257 8.1665 13.666 8.72615 13.666 9.4165C13.666 10.1069 14.2257 10.6665 14.916 10.6665Z" fill="#6E6E73"/>
</svg>
