<svg width="24" height="24" viewBox="0 0 24 24" fill="none" xmlns="http://www.w3.org/2000/svg">
<g clip-path="url(#clip0_705_72112)">
<g clip-path="url(#clip1_705_72112)">
<path d="M20.3232 8.76688C19.8515 8.93857 19.3299 8.69534 19.1582 8.22363C18.286 5.82739 16.5334 3.91531 14.2226 2.83676C13.7671 2.62435 13.5706 2.08456 13.783 1.62904C13.9955 1.17352 14.5353 0.977047 14.9908 1.18946C17.7419 2.47234 19.8284 4.74993 20.8666 7.60226C21.0383 8.07398 20.795 8.59559 20.3233 8.76728L20.3232 8.76688Z" fill="#AEAEAE"/>
<path d="M3.23796 14.9855C2.76664 15.157 2.24463 14.9139 2.07294 14.4422C1.03477 11.5899 1.16912 8.50396 2.452 5.75281C2.66441 5.29729 3.20421 5.10082 3.65973 5.31323C4.11525 5.52564 4.31172 6.06544 4.09931 6.52096C3.02196 8.83133 2.90891 11.4238 3.78107 13.82C3.95276 14.2918 3.70913 14.8135 3.23741 14.9852L3.23796 14.9855Z" fill="#AEAEAE"/>
<path d="M21.6682 14.1122C19.979 13.4904 18.6577 12.1641 18.0424 10.4735L17.1755 8.09165C16.0813 5.08555 12.9424 3.41005 9.8983 4.04593L9.5625 3.12332C9.39052 2.6508 8.8688 2.40851 8.39748 2.58006C7.92616 2.75161 7.68198 3.27311 7.85382 3.74523L8.18962 4.66784C5.44817 6.13773 4.1214 9.43861 5.21553 12.4447L6.08244 14.8265C6.69779 16.5172 6.53778 18.3826 5.63854 19.9538C5.4098 20.3595 5.36961 20.8421 5.52876 21.2794C5.82886 22.1039 6.74372 22.5305 7.56823 22.2304L21.6637 17.1001C22.4882 16.8 22.9144 15.8853 22.6143 15.0607C22.4552 14.6235 22.114 14.2792 21.6681 14.1118L21.6682 14.1122Z" fill="#AEAEAE"/>
<path d="M15.8595 23.0826C17.4064 22.5195 18.2993 20.9457 18.0654 19.3774L11.7881 21.6621C12.6166 23.014 14.3122 23.6457 15.8595 23.0826Z" fill="#AEAEAE"/>
</g>
</g>
<defs>
<clipPath id="clip0_705_72112">
<rect width="24" height="24" fill="white"/>
</clipPath>
<clipPath id="clip1_705_72112">
<rect width="20" height="21.8183" fill="white" transform="translate(-1 6) rotate(-20)"/>
</clipPath>
</defs>
</svg>
