<svg width="18" height="18" viewBox="0 0 18 18" fill="none" xmlns="http://www.w3.org/2000/svg">
<path fill-rule="evenodd" clip-rule="evenodd" d="M12.9378 7.87483C12.9378 8.53964 12.8069 9.19795 12.5524 9.81216C12.298 10.4264 11.9251 10.9845 11.4551 11.4546C10.9849 11.9246 10.4269 12.2975 9.81265 12.552C9.19844 12.8064 8.54014 12.9373 7.87532 12.9373C7.2105 12.9373 6.55219 12.8064 5.93798 12.552C5.32377 12.2975 4.76568 11.9246 4.29559 11.4546C3.82549 10.9845 3.45259 10.4264 3.19817 9.81216C2.94376 9.19795 2.81282 8.53964 2.81282 7.87483C2.81282 6.53216 3.34618 5.2445 4.29559 4.2951C5.24499 3.34569 6.53265 2.81233 7.87532 2.81233C9.21797 2.81233 10.5056 3.34569 11.4551 4.2951C12.4045 5.2445 12.9378 6.53216 12.9378 7.87483ZM12.0153 13.2073C10.659 14.2603 8.95236 14.7568 7.24284 14.5957C5.53333 14.4347 3.94945 13.6282 2.81366 12.3404C1.67786 11.0526 1.07554 9.38041 1.12929 7.66417C1.18305 5.94793 1.88885 4.31668 3.10301 3.10252C4.31718 1.88837 5.94842 1.18256 7.66466 1.1288C9.3809 1.07504 11.0531 1.67737 12.3409 2.81317C13.6287 3.94896 14.4352 5.53284 14.5962 7.24235C14.7573 8.95186 14.2608 10.6585 13.2078 12.0148L16.6278 15.4348C16.7107 15.5121 16.7772 15.6053 16.8234 15.7088C16.8695 15.8123 16.8942 15.924 16.8963 16.0373C16.8983 16.1506 16.8774 16.2631 16.8349 16.3681C16.7925 16.4732 16.7293 16.5686 16.6492 16.6487C16.5691 16.7289 16.4737 16.792 16.3686 16.8344C16.2636 16.8769 16.1511 16.8978 16.0378 16.8958C15.9245 16.8937 15.8127 16.869 15.7093 16.8229C15.6058 16.7767 15.5126 16.7102 15.4353 16.6273L12.0153 13.2073Z" fill="#B9B9B9"/>
</svg>
