<svg width="34" height="34" viewBox="0 0 34 34" fill="none" xmlns="http://www.w3.org/2000/svg">
<g clip-path="url(#clip0_608_64436)">
<path d="M11 22.8403C10.16 22.0003 9.16 21.3403 8 21.1703C5.83 20.6703 3.5 21.1703 1.83 22.8403C0.66 24.0003 0 25.5003 0 27.0003C0 27.6703 0 28.3403 0.16 29.0003C0.5 30.1703 1 31.1703 1.83 32.0003C4.33 34.6703 8.33 34.6703 11 32.0003C12 31.0003 12.66 29.5003 12.83 28.1703C13 26.3403 12.5 24.3403 11 22.8403ZM8.83 28.6703H4.16C3.5 28.6703 3 28.1703 3 27.5003C3 27.1703 3.16 26.8403 3.33 26.6703C3.5 26.5003 3.83 26.3403 4.16 26.3403H8.83C9.5 26.3403 10 26.8403 10 27.5003C10 28.1603 9.5 28.6703 8.83 28.6703Z" fill="#F04D64"/>
<path d="M22.3281 3V9.17H19.8281V3C19.8281 2.5 19.4981 2.33 19.1581 2.33H18.9881L6.15812 7.33C5.32812 7.66 4.65812 8.5 4.65812 9.33V10.5C3.15812 11.5 2.32812 13.33 2.32812 15.33V9.33C2.32812 7.33 3.49812 5.66 5.32812 5L18.1581 0.17C18.4881 0 18.8281 0 19.1581 0C20.8281 0 22.3281 1.33 22.3281 3Z" fill="#00A5F3"/>
<path d="M33.1581 20.1698V21.8398C33.1581 22.3398 32.8281 22.6698 32.3281 22.6698H29.9981C29.1681 22.6698 28.3281 21.9998 28.3281 21.1698C28.3281 20.6698 28.4981 20.1698 28.8281 19.8398C29.1581 19.5098 29.4981 19.3398 29.9981 19.3398H32.4981C32.8281 19.3398 33.1681 19.8398 33.1681 20.1698H33.1581Z" fill="#00A5F3"/>
<path d="M29.8281 17.6702H31.4981C32.3281 17.6702 33.1681 17.0002 33.1681 16.0002V15.3302C33.1681 12.0002 30.4981 9.16016 26.9981 9.16016H8.32812C6.99813 9.16016 5.65812 9.66016 4.65812 10.3302C3.15812 11.5002 2.32812 13.3302 2.32812 15.3302V18.1602C2.32812 18.8302 2.99813 19.1602 3.49813 18.9902C4.32812 18.6602 5.32812 18.4902 6.32812 18.4902C11.1581 18.4902 15.3281 22.4902 15.3281 27.4902C15.3281 28.6602 14.9981 29.9902 14.4981 31.1602C14.1681 31.8302 14.6681 32.4902 15.3281 32.4902H27.1581C30.4881 32.4902 33.3281 29.8202 33.3281 26.3202V25.9902C33.3281 25.1602 32.6581 24.3202 31.6581 24.3202H30.3281C28.8281 24.3202 27.3281 23.3202 26.8281 21.8202C26.4981 20.6502 26.8281 19.3202 27.6581 18.6502C28.1581 17.9802 28.9881 17.6502 29.8281 17.6502V17.6702ZM20.9981 17.3402H12.8281C12.1581 17.3402 11.6581 16.8402 11.6581 16.1702C11.6581 15.5002 12.1581 15.0002 12.8281 15.0002H20.9981C21.6681 15.0002 22.1681 15.5002 22.1681 16.1702C22.1681 16.8402 21.6681 17.3402 20.9981 17.3402Z" fill="#00A5F3"/>
</g>
<defs>
<clipPath id="clip0_608_64436">
<rect width="34" height="34" fill="white"/>
</clipPath>
</defs>
</svg>
