<svg width="18" height="18" viewBox="0 0 18 18" fill="none" xmlns="http://www.w3.org/2000/svg">
<g clip-path="url(#clip0_239_9944)">
<path fill-rule="evenodd" clip-rule="evenodd" d="M1.96889 2.25C0.881577 2.25 0.000137334 3.13144 0.000137334 4.21875V5.04649C-4.59974e-05 5.05664 -4.55586e-05 5.06679 0.000137334 5.07692V13.7812C0.000137334 14.8686 0.881576 15.75 1.96889 15.75H16.0314C17.1187 15.75 18.0001 14.8686 18.0001 13.7812V5.07673C18.0004 5.06673 18.0004 5.05671 18.0001 5.04668V4.21875C18.0001 3.13144 17.1187 2.25 16.0314 2.25H1.96889ZM16.3126 4.57908V4.21875C16.3126 4.06342 16.1868 3.9375 16.0314 3.9375H1.96889C1.81356 3.9375 1.68764 4.06342 1.68764 4.21875V4.57908L9.00014 8.86571L16.3126 4.57908ZM1.68764 6.53515V13.7812C1.68764 13.9366 1.81356 14.0625 1.96889 14.0625H16.0314C16.1868 14.0625 16.3126 13.9366 16.3126 13.7812V6.53515L9.42684 10.5716C9.16334 10.7261 8.83693 10.7261 8.57344 10.5716L1.68764 6.53515Z" fill="#2E5EA9"/>
</g>
<defs>
<clipPath id="clip0_239_9944">
<rect width="18" height="18" fill="white"/>
</clipPath>
</defs>
</svg>
