<svg width="34" height="34" viewBox="0 0 34 34" fill="none" xmlns="http://www.w3.org/2000/svg">
<g clip-path="url(#clip0_608_64429)">
<path d="M11.56 31.8181C12.52 30.855 13.16 29.4104 13.32 28.1263C13.48 26.3607 13 24.4346 11.56 22.99C10.76 22.1874 9.8 21.5454 8.68 21.3849C6.6 20.9033 4.36 21.3849 2.76 22.99C1.64 24.1135 1 25.5581 1 27.0027C1 27.6448 1 28.2868 1.16 28.9289C1.48 30.0524 1.96 31.0155 2.76 31.8181C5.16 34.3862 9 34.3862 11.56 31.8181ZM9.48 26.3607C10.12 26.3607 10.6 26.8422 10.6 27.4843C10.6 28.1263 10.12 28.6078 9.48 28.6078H8.36V29.7314C8.36 30.3735 7.88 30.855 7.24 30.855C6.6 30.855 6.12 30.3735 6.12 29.7314V28.6078H5C4.36 28.6078 3.88 28.1263 3.88 27.4843C3.88 27.1632 4.04 26.8422 4.2 26.6817C4.36 26.5212 4.68 26.3607 5 26.3607H6.12V25.0766C6.12 24.7556 6.28 24.4346 6.44 24.2741C6.6 24.1135 6.92 23.953 7.24 23.953C7.88 23.953 8.36 24.4346 8.36 25.0766V26.3607H9.48Z" fill="#00A325"/>
<path d="M22.4402 3.88919V9.82809H20.0402V3.88919C20.0402 3.40766 19.7202 3.24715 19.4002 3.24715H19.2402L6.92023 8.06247C6.12023 8.38349 5.48023 9.18605 5.48023 9.9886V11.1122C4.04023 12.0752 3.24023 13.8409 3.24023 15.767V9.9886C3.24023 8.06247 4.36023 6.45736 6.12023 5.81532L18.4402 1.16051C18.7602 1 19.0802 1 19.4002 1C21.0002 1 22.4402 2.28409 22.4402 3.88919Z" fill="#00A5F3"/>
<path d="M32.8402 20.4218V22.0269C32.8402 22.5084 32.5202 22.8295 32.0402 22.8295H29.8002C29.0002 22.8295 28.2002 22.1874 28.2002 21.3849C28.2002 20.9033 28.3602 20.4218 28.6802 20.1008C29.0002 19.7798 29.3202 19.6192 29.8002 19.6192H32.2002C32.5202 19.6192 32.8402 20.1008 32.8402 20.4218Z" fill="#00A5F3"/>
<path d="M29.6402 18.0141H31.2402C32.0402 18.0141 32.8402 17.3721 32.8402 16.409V15.767C32.8402 12.5568 30.2802 9.82809 26.9202 9.82809H9.00023C7.72023 9.82809 6.44023 10.3096 5.48023 10.9517C4.04023 12.0752 3.24023 13.8409 3.24023 15.767V18.4957C3.24023 19.1377 3.88023 19.4587 4.36023 19.2982C5.16023 18.9772 6.12023 18.8167 7.08023 18.8167C11.7202 18.8167 15.7202 22.6689 15.7202 27.4843C15.7202 28.6078 15.4002 29.8919 14.9202 31.0155C14.6002 31.6575 15.0802 32.2996 15.7202 32.2996H27.0802C30.2802 32.2996 33.0002 29.7314 33.0002 26.3607V26.0397C33.0002 25.2371 32.3602 24.4346 31.4002 24.4346H30.1202C28.6802 24.4346 27.2402 23.4715 26.7602 22.0269C26.4402 20.9033 26.7602 19.6192 27.5602 18.9772C28.0402 18.3352 28.8402 18.0141 29.6402 18.0141ZM21.1602 17.6931H13.3202C12.6802 17.6931 12.2002 17.2116 12.2002 16.5695C12.2002 15.9275 12.6802 15.446 13.3202 15.446H21.1602C21.8002 15.446 22.2802 15.9275 22.2802 16.5695C22.2802 17.2116 21.8002 17.6931 21.1602 17.6931Z" fill="#00A5F3"/>
</g>
<defs>
<clipPath id="clip0_608_64429">
<rect width="32" height="32.7442" fill="white" transform="translate(1 1)"/>
</clipPath>
</defs>
</svg>
