<svg width="16" height="16" viewBox="0 0 16 16" fill="none" xmlns="http://www.w3.org/2000/svg">
<g clip-path="url(#clip0_645_32456)">
<g clip-path="url(#clip1_645_32456)">
<path d="M13.4619 5.06495C13.1641 5.17335 12.8348 5.01979 12.7264 4.72198C12.1757 3.20915 11.0693 2.00199 9.6104 1.32107C9.32281 1.18696 9.19877 0.846172 9.33288 0.558586C9.46698 0.270999 9.80777 0.146962 10.0954 0.281066C11.8323 1.09099 13.1495 2.52891 13.805 4.32969C13.9134 4.6275 13.7598 4.95681 13.462 5.06521L13.4619 5.06495Z" fill="white"/>
<path d="M2.6747 8.99104C2.37714 9.09934 2.04758 8.94587 1.93918 8.64806C1.28375 6.84728 1.36857 4.89904 2.1785 3.16215C2.3126 2.87456 2.65339 2.75052 2.94098 2.88463C3.22856 3.01873 3.3526 3.35952 3.2185 3.64711C2.53833 5.10573 2.46696 6.74244 3.01759 8.25527C3.12598 8.55308 2.97217 8.88248 2.67436 8.99087L2.6747 8.99104Z" fill="white"/>
<path d="M14.3108 8.43964C13.2443 8.04707 12.4102 7.20975 12.0217 6.14238L11.4744 4.63866C10.7836 2.7408 8.80191 1.68301 6.88007 2.08446L6.66806 1.50198C6.55948 1.20366 6.2301 1.0507 5.93254 1.159C5.63498 1.26731 5.48083 1.59655 5.58931 1.89461L5.80132 2.47709C4.07054 3.40508 3.23291 5.48904 3.92367 7.3869L4.47098 8.89062C4.85947 9.95799 4.75845 11.1357 4.19073 12.1276C4.04632 12.3838 4.02094 12.6885 4.12143 12.9645C4.31089 13.4851 4.88847 13.7544 5.40901 13.5649L14.308 10.326C14.8285 10.1365 15.0976 9.55903 14.9081 9.03849C14.8077 8.76242 14.5923 8.54506 14.3107 8.43939L14.3108 8.43964Z" fill="white"/>
<path d="M10.6447 14.1028C11.6213 13.7474 12.1849 12.7537 12.0373 11.7636L8.07422 13.2061C8.59729 14.0595 9.66779 14.4584 10.6447 14.1028Z" fill="white"/>
</g>
</g>
<defs>
<clipPath id="clip0_645_32456">
<rect width="16" height="16" fill="white"/>
</clipPath>
<clipPath id="clip1_645_32456">
<rect width="12.6267" height="13.7747" fill="white" transform="translate(0 3.31836) rotate(-20)"/>
</clipPath>
</defs>
</svg>
