<svg width="24" height="24" viewBox="0 0 24 24" fill="none" xmlns="http://www.w3.org/2000/svg">
<g clip-path="url(#clip0_655_74372)">
<g clip-path="url(#clip1_655_74372)">
<path d="M20.3232 8.76688C19.8515 8.93857 19.3299 8.69534 19.1582 8.22363C18.286 5.82739 16.5334 3.91531 14.2226 2.83676C13.7671 2.62435 13.5706 2.08456 13.783 1.62904C13.9955 1.17352 14.5353 0.977047 14.9908 1.18946C17.7419 2.47234 19.8284 4.74993 20.8666 7.60226C21.0383 8.07398 20.795 8.59559 20.3233 8.76728L20.3232 8.76688Z" fill="#AEAEAE"/>
<path d="M3.23698 14.9855C2.76566 15.157 2.24365 14.9139 2.07196 14.4422C1.0338 11.5899 1.16814 8.50396 2.45102 5.75281C2.66344 5.29729 3.20323 5.10082 3.65875 5.31323C4.11427 5.52564 4.31074 6.06544 4.09833 6.52096C3.02098 8.83133 2.90794 11.4238 3.78009 13.82C3.95179 14.2918 3.70815 14.8135 3.23644 14.9852L3.23698 14.9855Z" fill="#AEAEAE"/>
<path d="M21.6672 14.1122C19.978 13.4904 18.6568 12.1641 18.0414 10.4735L17.1745 8.09165C16.0804 5.08555 12.9414 3.41005 9.89733 4.04593L9.56152 3.12332C9.38954 2.6508 8.86782 2.40851 8.3965 2.58006C7.92518 2.75161 7.68101 3.27311 7.85284 3.74523L8.18865 4.66784C5.44719 6.13773 4.12042 9.43861 5.21455 12.4447L6.08146 14.8265C6.69681 16.5172 6.5368 18.3826 5.63756 19.9538C5.40883 20.3595 5.36863 20.8421 5.52779 21.2794C5.82788 22.1039 6.74275 22.5305 7.56725 22.2304L21.6627 17.1001C22.4872 16.8 22.9135 15.8853 22.6134 15.0607C22.4542 14.6235 22.113 14.2792 21.6671 14.1118L21.6672 14.1122Z" fill="#AEAEAE"/>
<path d="M15.8585 23.0826C17.4054 22.5195 18.2983 20.9457 18.0644 19.3774L11.7871 21.6621C12.6156 23.014 14.3112 23.6457 15.8585 23.0826Z" fill="#AEAEAE"/>
</g>
</g>
<defs>
<clipPath id="clip0_655_74372">
<rect width="24" height="24" fill="white"/>
</clipPath>
<clipPath id="clip1_655_74372">
<rect width="20" height="21.8183" fill="white" transform="translate(-1 6) rotate(-20)"/>
</clipPath>
</defs>
</svg>
