<svg width="32" height="32" viewBox="0 0 32 32" fill="none" xmlns="http://www.w3.org/2000/svg">
<path d="M13.332 6.6665H29.332" stroke="#2E5EA9" stroke-width="2" stroke-linecap="round" stroke-linejoin="round"/>
<path d="M13.332 16H29.332" stroke="#2E5EA9" stroke-width="2" stroke-linecap="round" stroke-linejoin="round"/>
<path d="M13.332 25.3335H29.332" stroke="#2E5EA9" stroke-width="2" stroke-linecap="round" stroke-linejoin="round"/>
<path d="M5.33464 18.6668C6.80739 18.6668 8.0013 17.4729 8.0013 16.0002C8.0013 14.5274 6.80739 13.3335 5.33464 13.3335C3.86188 13.3335 2.66797 14.5274 2.66797 16.0002C2.66797 17.4729 3.86188 18.6668 5.33464 18.6668Z" stroke="#2E5EA9" stroke-width="2" stroke-linecap="round" stroke-linejoin="round"/>
<path d="M5.33464 27.9998C6.80739 27.9998 8.0013 26.8059 8.0013 25.3332C8.0013 23.8604 6.80739 22.6665 5.33464 22.6665C3.86188 22.6665 2.66797 23.8604 2.66797 25.3332C2.66797 26.8059 3.86188 27.9998 5.33464 27.9998Z" stroke="#2E5EA9" stroke-width="2" stroke-linecap="round" stroke-linejoin="round"/>
<path d="M2.66797 6.6665L4.66797 8.6665L8.66797 4.6665" stroke="#2E5EA9" stroke-width="2" stroke-linecap="round" stroke-linejoin="round"/>
</svg>
