<svg width="24" height="24" viewBox="0 0 24 24" fill="none" xmlns="http://www.w3.org/2000/svg">
<path d="M21.6054 6.01607L15.8411 0.251786C15.6804 0.0910715 15.4634 0 15.2357 0H3.85714C3.38304 0 3 0.383036 3 0.857143V23.1429C3 23.617 3.38304 24 3.85714 24H21C21.4741 24 21.8571 23.617 21.8571 23.1429V6.62411C21.8571 6.39643 21.7661 6.17679 21.6054 6.01607ZM19.8804 7.01786H14.8393V1.97679L19.8804 7.01786ZM19.9286 22.0714H4.92857V1.92857H13.0179V7.71429C13.0179 8.01265 13.1364 8.2988 13.3474 8.50978C13.5583 8.72076 13.8445 8.83929 14.1429 8.83929H19.9286V22.0714ZM12.2143 14.8393H7.28571C7.16786 14.8393 7.07143 14.9357 7.07143 15.0536V16.3393C7.07143 16.4571 7.16786 16.5536 7.28571 16.5536H12.2143C12.3321 16.5536 12.4286 16.4571 12.4286 16.3393V15.0536C12.4286 14.9357 12.3321 14.8393 12.2143 14.8393ZM7.07143 11.4107V12.6964C7.07143 12.8143 7.16786 12.9107 7.28571 12.9107H17.5714C17.6893 12.9107 17.7857 12.8143 17.7857 12.6964V11.4107C17.7857 11.2929 17.6893 11.1964 17.5714 11.1964H7.28571C7.16786 11.1964 7.07143 11.2929 7.07143 11.4107Z" fill="#6E6E73"/>
</svg>
