<svg width="16" height="16" viewBox="0 0 16 16" fill="none" xmlns="http://www.w3.org/2000/svg">
<path d="M5.00033 4.66667C5.73671 4.66667 6.33366 4.06971 6.33366 3.33333C6.33366 2.59695 5.73671 2 5.00033 2C4.26395 2 3.66699 2.59695 3.66699 3.33333C3.66699 4.06971 4.26395 4.66667 5.00033 4.66667Z" stroke="#3465D9" stroke-width="1.25" stroke-linecap="round" stroke-linejoin="round"/>
<path d="M11.0003 4.66667C11.7367 4.66667 12.3337 4.06971 12.3337 3.33333C12.3337 2.59695 11.7367 2 11.0003 2C10.2639 2 9.66699 2.59695 9.66699 3.33333C9.66699 4.06971 10.2639 4.66667 11.0003 4.66667Z" stroke="#3465D9" stroke-width="1.25" stroke-linecap="round" stroke-linejoin="round"/>
<path d="M3.33301 6.66602H6.66634L5.99967 13.9993H3.99967L3.33301 6.66602Z" stroke="#3465D9" stroke-width="1.25" stroke-linecap="round" stroke-linejoin="round"/>
<path d="M9.33301 6.66602H12.6663L11.9997 13.9993H9.99967L9.33301 6.66602Z" stroke="#3465D9" stroke-width="1.25" stroke-linecap="round" stroke-linejoin="round"/>
</svg>
