<svg width="24" height="24" viewBox="0 0 24 24" fill="none" xmlns="http://www.w3.org/2000/svg">
<g clip-path="url(#clip0_262_5734)">
<path d="M22.0577 6.17956C22.0453 5.5316 22.0336 4.91947 22.0336 4.32728C22.0336 3.86335 21.6576 3.48722 21.1935 3.48722C17.6008 3.48722 14.8655 2.45473 12.5855 0.237863C12.2593 -0.0793438 11.7402 -0.0792318 11.4142 0.237863C9.13437 2.45473 6.39947 3.48722 2.80703 3.48722C2.34309 3.48722 1.96697 3.86335 1.96697 4.32728C1.96697 4.91958 1.95532 5.53193 1.94289 6.18001C1.82774 12.2101 1.67003 20.4686 11.7247 23.9537C11.8138 23.9846 11.9068 24.0001 11.9998 24.0001C12.0927 24.0001 12.1858 23.9846 12.2749 23.9537C22.3303 20.4685 22.1728 12.2098 22.0577 6.17956ZM11.9999 22.2685C3.3767 19.136 3.50708 12.2738 3.62278 6.21205C3.62973 5.84824 3.63645 5.49564 3.64115 5.14998C7.00588 5.00796 9.69654 3.98835 11.9999 1.98183C14.3034 3.98835 16.9945 5.00807 20.3595 5.14998C20.3642 5.49553 20.3709 5.84791 20.3779 6.21149C20.4935 12.2735 20.6237 19.1359 11.9999 22.2685Z" fill="#36BC99"/>
<path d="M14.8926 9.08194L10.838 13.1363L9.10784 11.4061C8.77977 11.0781 8.24784 11.0781 7.91988 11.4061C7.59181 11.7343 7.59181 12.2661 7.91988 12.5942L10.2441 14.9183C10.408 15.0823 10.6231 15.1643 10.838 15.1643C11.053 15.1643 11.268 15.0823 11.432 14.9183L16.0805 10.27C16.4086 9.94193 16.4086 9.41001 16.0806 9.08205C15.7526 8.75398 15.2207 8.75386 14.8926 9.08194Z" fill="#36BC99"/>
</g>
<defs>
<clipPath id="clip0_262_5734">
<rect width="24" height="24" fill="white"/>
</clipPath>
</defs>
</svg>
