<svg width="24" height="24" viewBox="0 0 24 24" fill="none" xmlns="http://www.w3.org/2000/svg">
<g clip-path="url(#clip0_262_5752)">
<path d="M23.6368 18.7289L14.3201 2.59194C13.8359 1.75316 12.9685 1.25244 12 1.25244C11.0315 1.25244 10.1641 1.75321 9.67986 2.59194L0.3632 18.7289C-0.121067 19.5677 -0.121067 20.5692 0.3632 21.4079C0.847467 22.2467 1.7148 22.7474 2.68333 22.7474H21.3167C22.2852 22.7474 23.1526 22.2467 23.6368 21.4079C24.121 20.5692 24.121 19.5677 23.6368 18.7289ZM22.4181 20.7042C22.1882 21.1024 21.7764 21.3401 21.3167 21.3401H2.68333C2.22358 21.3401 1.81183 21.1024 1.58195 20.7042C1.35208 20.3061 1.35208 19.8306 1.58195 19.4325L10.8986 3.29554C11.1285 2.89738 11.5402 2.65968 12 2.65968C12.4597 2.65968 12.8715 2.89738 13.1014 3.29554L22.4181 19.4325C22.6479 19.8306 22.6479 20.3061 22.4181 20.7042Z" fill="#FF4A36"/>
<path d="M11.9997 16.6494C11.4824 16.6494 11.0615 17.0703 11.0615 17.5876C11.0615 18.1049 11.4824 18.5258 11.9997 18.5258C12.517 18.5258 12.9379 18.1049 12.9379 17.5876C12.9379 17.0703 12.517 16.6494 11.9997 16.6494Z" fill="#FF4A36"/>
<path d="M12.7032 7.9707H11.2959V15.2417H12.7032V7.9707Z" fill="#FF4A36"/>
</g>
<defs>
<clipPath id="clip0_262_5752">
<rect width="24" height="24" fill="white"/>
</clipPath>
</defs>
</svg>
