<svg width="16" height="16" viewBox="0 0 16 16" fill="none" xmlns="http://www.w3.org/2000/svg">
<path d="M14.6664 4.82733C14.6669 4.73959 14.65 4.65262 14.6169 4.57139C14.5837 4.49017 14.5348 4.41629 14.473 4.354L11.6464 1.52733C11.5841 1.46554 11.5102 1.41666 11.429 1.38348C11.3477 1.3503 11.2608 1.33349 11.173 1.334C11.0853 1.33349 10.9983 1.3503 10.9171 1.38348C10.8359 1.41666 10.762 1.46554 10.6997 1.52733L8.81302 3.414L1.52635 10.7007C1.46456 10.763 1.41568 10.8368 1.3825 10.9181C1.34933 10.9993 1.33251 11.0863 1.33302 11.174V14.0007C1.33302 14.1775 1.40326 14.347 1.52828 14.4721C1.65331 14.5971 1.82287 14.6673 1.99969 14.6673H4.82635C4.91964 14.6724 5.01295 14.6578 5.10023 14.6245C5.18752 14.5912 5.26683 14.5399 5.33302 14.474L12.5797 7.18733L14.473 5.334C14.5339 5.26938 14.5834 5.19502 14.6197 5.114C14.6261 5.06086 14.6261 5.00714 14.6197 4.954C14.6228 4.92296 14.6228 4.89169 14.6197 4.86066L14.6664 4.82733ZM4.55302 13.334H2.66635V11.4473L9.28635 4.82733L11.173 6.714L4.55302 13.334ZM12.113 5.77399L10.2264 3.88733L11.173 2.94733L13.053 4.82733L12.113 5.77399Z" fill="#3465D9"/>
</svg>
